<?xml version="1.0" standalone="no"?>
<!DOCTYPE svg PUBLIC "-//W3C//DTD SVG 1.1//EN" "http://www.w3.org/Graphics/SVG/1.1/DTD/svg11.dtd" >
<svg xmlns="http://www.w3.org/2000/svg" xmlns:xlink="http://www.w3.org/1999/xlink" version="1.1">
<metadata>
Created by FontForge 20170924 at Fri Sep 26 11:50:53 2008
 By www-data
----------------------------------------------------------------
  Copyright (c) Hamoonsoft, 2004. All rights reserved.
  Convert And Modified By Mojtaba Kia (c) 2007 - 2008
----------------------------------------------------------------
</metadata>
<defs>
<font id="Mj_Faraz" horiz-adv-x="0" >
  <font-face 
    font-family="Mj_Faraz"
    font-weight="700"
    font-stretch="normal"
    units-per-em="2048"
    panose-1="0 0 7 0 0 0 0 0 0 0"
    ascent="1638"
    descent="-410"
    bbox="-188 -1046 2175 1952"
    underline-thickness="100"
    underline-position="-1000"
    unicode-range="U+0020-FEFC"
  />
<missing-glyph horiz-adv-x="1024" 
d="M128 0v1298h768v-1298h-768zM256 128h512v1042h-512v-1042z" />
    <glyph glyph-name="uniFC60" unicode="&#x651;&#x64e;" arabic-form="isolated" 
d="M406 1593q5 -41 5 -74q0 -164 -112 -164q-56 0 -76 74q-46 -101 -122 -101q-69 0 -69 83q0 54 33 111h41q-17 -45 -17 -69q0 -37 42 -37q33 0 55 49q16 35 20 78l49 18q1 -53 6 -73q10 -42 47 -42q54 0 54 66q0 24 -7 64zM410 1700l-341 -92l-14 57l340 98z" />
    <glyph glyph-name="uniFC61" unicode="&#x651;&#x64f;" arabic-form="isolated" 
d="M412 1496q6 -40 6 -74q0 -165 -113 -165q-55 0 -76 75q-45 -101 -122 -101q-69 0 -69 84q0 53 33 109h41q-16 -44 -16 -67q0 -38 41 -38q33 0 55 49q16 36 20 78l50 19q1 -55 6 -73q10 -44 46 -44q54 0 54 66q0 26 -7 65zM414 1777q0 -89 -80 -145l47 -33l-38 -44
q-36 25 -51 45q-105 -68 -220 -91l-25 53q91 31 101 35q60 23 90 53q-25 40 -25 71q0 44 35 88q37 47 80 47q35 0 60.5 -22t25.5 -57zM363 1758q0 44 -51 44q-20 0 -40 -23.5t-20 -45.5q0 -43 43 -60q25 7 46.5 33t21.5 52z" />
    <glyph glyph-name="uniE818" unicode="&#x651;&#x64b;" 
d="M384 1598q6 -40 6 -74q0 -164 -113 -164q-56 0 -76 74q-45 -102 -122 -102q-69 0 -69 84q0 54 33 111h41q-17 -44 -17 -68q0 -38 42 -38q33 0 55 49q16 36 20 78l50 19q1 -54 6 -73q10 -43 46 -43q54 0 54 65q0 26 -7 64zM368 1832l-340 -91l-13 58l339 96zM376 1699
l-341 -92l-14 58l341 96z" />
    <glyph glyph-name="uniFC5E" unicode="&#x651;&#x64c;" arabic-form="isolated" 
d="M404 1532q5 -40 5 -75q0 -164 -112 -164q-56 0 -76 75q-46 -101 -123 -101q-69 0 -69 83q0 54 34 110h41q-17 -44 -17 -68q0 -37 41 -37q34 0 56 49q16 36 20 78l49 18q1 -53 6 -72q10 -44 47 -44q54 0 54 66q0 26 -7 64zM396 1800q0 -88 -80 -148l48 -33l-39 -44
q-41 21 -57 41q-86 -57 -215 -87l-24 53q11 5 23 12q31 29 31 66q0 19 -15 25q-20 10 -49 -8l-5 33q36 31 70 31q42 0 42 -49q0 -30 -27 -82q77 16 121 60q-24 39 -24 71q0 44 35 88q37 47 80 47q34 0 59.5 -21.5t25.5 -54.5zM345 1778q0 44 -49 44q-20 0 -38 -22t-18 -41
q0 -18 12 -38.5t28 -24.5q24 5 44.5 31t20.5 51z" />
    <glyph glyph-name="uniFC62" unicode="&#x651;&#x650;" horiz-adv-x="1" arabic-form="isolated" 
d="M397 1787q6 -42 6 -75q0 -164 -113 -164q-56 0 -76 74q-46 -102 -122 -102q-69 0 -69 84q0 54 33 111h41q-17 -45 -17 -68q0 -39 42 -39q33 0 55 50q16 36 20 78l49 19q2 -55 7 -74q10 -42 46 -42q54 0 54 65q0 25 -7 65zM388 1424l-341 -91l-13 58l340 96z" />
    <glyph glyph-name="uniFC5F" unicode="&#x651;&#x64d;" arabic-form="isolated" 
d="M388 1952q6 -42 6 -75q0 -165 -113 -165q-55 0 -76 75q-45 -102 -122 -102q-69 0 -69 84q0 54 33 111h41q-16 -45 -16 -68q0 -39 41 -39q33 0 55 50q16 36 20 77l50 20q1 -55 6 -73q10 -43 47 -43q53 0 53 65q0 25 -7 64zM386 1573l-342 -91l-12 56l340 97zM393 1440
l-341 -92l-13 57l341 97z" />
    <glyph glyph-name="uniFEF5" unicode="&#xfedf;&#xfe82;" horiz-adv-x="641" arabic-form="isolated" 
d="M243 109q193 9 210 459q0 159 12 478q0 23 19.5 47t40.5 24q35 2 46 -57q2 -14 2 -75q3 -142 -2 -490q-4 -197 -80 -344q-83 -160 -212 -166h-25q-133 0 -133 74v11q7 42 41 43q-23 16 -17 38q39 149 40 290q0 229 38 547q8 49 52 55q40 3 51 -23q3 -12 2 -62
q-14 -212 -32 -607q-2 -128 -52 -218q-8 -15 -26 -24h25zM561 1234q-78 -91 -234 -91q-42 0 -69 6q-85 23 -123 13q-31 -17 -52.5 -35.5t-23.5 -23.5q-29 -11 -51.5 15.5t3.5 64.5q32 35 60 50.5t56 23.5q74 10 132 -12q48 -16 91 -16q83 0 141 63q19 18 40 18q44 0 44 -44
q0 -17 -14 -32z" />
    <glyph glyph-name="uniFEF6" unicode="&#xfee0;&#xfe82;" horiz-adv-x="679" arabic-form="final" 
d="M290 798l-15 -410q-11 -269 -56 -349q-8 -26 -23 -51q124 -1 181 124q45 100 45 270q0 91 8 266q9 181 9 257q0 80 64 85q39 1 48 -43q1 -31 1 -63q9 -164 -5 -612q-4 -60 27 -101q31 -44 79 -44h39v-127h-37q-89 0 -148 84q-26 -72 -94 -133q-83 -72 -165 -80h-38
q-119 0 -119 69v11q5 34 53 41q-31 16 -27 38q29 127 40 358q19 389 23 441q5 55 45 61q65 4 65 -67v-25zM586 1124q-78 -91 -234 -91q-42 0 -69 7q-85 22 -123 12q-31 -16 -52.5 -35t-23.5 -24q-29 -11 -51.5 15.5t3.5 64.5q32 35 60 51t56 23q74 10 132 -12q48 -15 91 -15
q83 0 141 62q19 18 40 18q44 0 44 -44q0 -16 -14 -32z" />
    <glyph glyph-name="uniFEF7" unicode="&#xfedf;&#xfe84;" horiz-adv-x="641" arabic-form="isolated" 
d="M246 109q193 9 210 459q0 159 12 478q0 23 19.5 47t40.5 24q35 2 46 -57q2 -14 2 -75q3 -142 -2 -490q-4 -197 -80 -344q-83 -160 -212 -166h-25q-133 0 -133 74v11q7 42 41 43q-23 16 -17 38q39 149 40 290q0 229 38 547q8 49 52 55q40 3 51 -23q3 -12 2 -62
q-14 -212 -32 -607q-2 -128 -52 -218q-8 -15 -26 -24h25zM288 1398q74 -19 74 -67q0 -41 -43 -86t-79 -45q-20 0 -20 18q0 36 63 102q-63 11 -73 24t-10 40q0 74 83 111q10 5 26 -4t16 -27q0 -22 -37 -66z" />
    <glyph glyph-name="uniFEF8" unicode="&#xfee0;&#xfe84;" horiz-adv-x="679" arabic-form="final" 
d="M290 798l-15 -410q-11 -269 -56 -349q-8 -26 -23 -51q124 -1 181 124q45 100 45 270q0 91 8 266q9 181 9 257q0 80 64 85q39 1 48 -43q1 -31 1 -63q9 -164 -5 -612q-4 -60 27 -101q31 -44 79 -44h39v-127h-37q-89 0 -148 84q-26 -72 -94 -133q-83 -72 -165 -80h-38
q-119 0 -119 69v11q5 34 53 41q-31 16 -27 38q29 127 40 358q19 389 23 441q5 55 45 61q65 4 65 -67v-25zM226 1198q74 -19 74 -67q0 -41 -43 -86t-79 -45q-20 0 -20 18q0 36 63 102q-63 11 -73 24t-10 40q0 74 83 111q10 5 26 -4t16 -27q0 -22 -37 -66z" />
    <glyph glyph-name="uniFEF9" unicode="&#xfedf;&#xfe88;" horiz-adv-x="641" arabic-form="isolated" 
d="M246 109q193 9 210 459q0 159 12 478q0 23 19.5 47t40.5 24q35 2 46 -57q2 -14 2 -75q3 -142 -2 -490q-4 -197 -80 -344q-83 -160 -212 -166h-25q-133 0 -133 74v11q7 42 41 43q-23 16 -17 38q39 149 40 290q0 229 38 547q8 49 52 55q40 3 51 -23q3 -12 2 -62
q-14 -212 -32 -607q-2 -128 -52 -218q-8 -15 -26 -24h25zM225 -201q74 -19 74 -67q0 -41 -43 -86t-79 -45q-20 0 -20 18q0 36 63 102q-63 11 -73 24t-10 40q0 74 83 111q10 5 26 -4t16 -27q0 -22 -37 -66z" />
    <glyph glyph-name="uniFEFA" unicode="&#xfee0;&#xfe88;" horiz-adv-x="679" arabic-form="final" 
d="M290 798l-15 -410q-11 -269 -56 -349q-8 -26 -23 -51q124 -1 181 124q45 100 45 270q0 91 8 266q9 181 9 257q0 80 64 85q39 1 48 -43q1 -31 1 -63q9 -164 -5 -612q-4 -60 27 -101q31 -44 79 -44h39v-127h-37q-89 0 -148 84q-26 -72 -94 -133q-83 -72 -165 -80h-38
q-119 0 -119 69v11q5 34 53 41q-31 16 -27 38q29 127 40 358q19 389 23 441q5 55 45 61q65 4 65 -67v-25zM227 -298q74 -19 74 -67q0 -41 -43 -86t-79 -45q-20 0 -20 18q0 36 63 102q-63 11 -73 24t-10 40q0 74 83 111q10 5 26 -4t16 -27q0 -22 -37 -66z" />
    <glyph glyph-name="uniFEFB" unicode="&#xfedf;&#xfe8e;" horiz-adv-x="641" arabic-form="isolated" 
d="M246 109q193 9 210 459q0 159 12 478q0 23 19.5 47t40.5 24q35 2 46 -57q2 -14 2 -75q3 -142 -2 -490q-4 -197 -80 -344q-83 -160 -212 -166h-25q-133 0 -133 74v11q7 42 41 43q-23 16 -17 38q39 149 40 290q0 229 38 547q8 49 52 55q40 3 51 -23q3 -12 2 -62
q-14 -212 -32 -607q-2 -128 -52 -218q-8 -15 -26 -24h25z" />
    <glyph glyph-name="uniFEFC" unicode="&#xfee0;&#xfe8e;" horiz-adv-x="679" arabic-form="final" 
d="M290 798l-15 -410q-11 -269 -56 -349q-8 -26 -23 -51q124 -1 181 124q45 100 45 270q0 91 8 266q9 181 9 257q0 80 64 85q39 1 48 -43q1 -31 1 -63q9 -164 -5 -612q-4 -60 27 -101q31 -44 79 -44h39v-127h-37q-89 0 -148 84q-26 -72 -94 -133q-83 -72 -165 -80h-38
q-119 0 -119 69v11q5 34 53 41q-31 16 -27 38q29 127 40 358q19 389 23 441q5 55 45 61q65 4 65 -67v-25z" />
    <glyph glyph-name="uniFDF2" unicode="&#xfedf;&#xfee0;&#xfeea;" horiz-adv-x="1329" arabic-form="isolated" 
d="M583 6q-74 3 -120 65q-49 65 -105 65q-72 -6 -140 -109q-17 -18 -43 -18q-23 0 -41.5 18t-18.5 43q0 15 9 32q112 168 249 167q76 0 135.5 -68t82.5 -68h13q53 3 90.5 55t47.5 129q7 66 12 245q2 231 8 308q13 170 69 167q49 -1 46 -114q-4 -35 -7.5 -148.5t-3.5 -176.5
q0 -56 0.5 -166t3.5 -149q7 -76 49.5 -113t88.5 -37h9q60 0 93 30.5t48 74.5q35 128 29 347q-3 269 2 353q12 101 68 101q51 0 43 -105q0 -149 -1 -455q-8 -248 -51 -328q-77 -138 -219 -145h-31q-70 3 -123 38.5t-67 79.5q-81 -118 -197 -118h-28zM998 1337
q-12 -82 -49.5 -126t-75.5 -44q-22 0 -43 11q-27 -32 -52.5 -42.5t-56.5 -12.5t-54 22q-19 16 -27 40.5t-7 48.5q9 63 26 65q26 5 29 -53q1 -30 32 -30q22 0 42 16q20 17 26 42q12 52 35 57q22 5 24 -35q3 -36 20 -40t31 8q22 16 41 92q11 40 35 40t25 -45q0 -7 -1 -14z
M874 1628q-3 -31 -10 -91q-2 -23 -5 -52q-2 -29 -8 -51q-8 -26 -33 -26q-22 -1 -22 18q0 6 1 12q10 25 11 113q4 58 7 74q3 15 31 16q12 0 20.5 -4t7.5 -9z" />
    <glyph glyph-name="uni0622" unicode="&#x622;" horiz-adv-x="804" arabic-form="isolated" 
d="M367 1043q-24 -259 -7 -528q7 -223 -17 -409q-5 -47 -15 -69q-18 -38 -56 -39q-36 -3 -48 47q-3 33 0 73q21 123 15 390q-9 345 16 528q7 57 52 59q26 1 45 -15t15 -37zM734 1365q-97 -114 -292 -114q-53 0 -87 8q-106 28 -154 16q-38 -21 -65 -44.5t-30 -29.5
q-36 -14 -64 19t4 81q41 44 76 63.5t70 28.5q92 13 164 -15q61 -19 114 -19q104 0 176 78q24 23 50 23q55 0 55 -55q0 -21 -17 -40z" />
    <glyph glyph-name="uniFE82" unicode="&#x622;" horiz-adv-x="391" arabic-form="final" 
d="M393 0h-11q-257 0 -255 394q2 236 25 594q12 105 65 102q60 -4 51 -122q-17 -215 -18 -536q-5 -83 4 -142t28 -96t47.5 -53.5t61.5 -13.5h2v-127zM623 1342q-97 -114 -292 -114q-53 0 -87 8q-106 28 -154 16q-38 -21 -65 -44.5t-30 -29.5q-36 -14 -64 19t4 81
q41 44 76 63.5t70 28.5q92 13 164 -15q61 -19 114 -19q104 0 176 78q24 23 50 23q55 0 55 -55q0 -21 -17 -40z" />
    <glyph glyph-name="uni0623" unicode="&#x623;" horiz-adv-x="371" arabic-form="isolated" 
d="M286 1046q-5 -125 -1 -365q1 -248 -4 -365q-5 -120 -16 -210q-15 -107 -81 -111q-41 -3 -41 75q0 24 1 49q19 102 22 462q2 388 9 456q5 60 57 64q23 0 39 -16t15 -39zM229 1384q74 -19 74 -67q0 -41 -43 -86t-79 -45q-20 0 -20 18q0 36 63 102q-63 11 -73 24t-10 40
q0 74 83 111q10 5 26 -4t16 -27q0 -22 -37 -66z" />
    <glyph glyph-name="uniFE84" unicode="&#x623;" horiz-adv-x="391" arabic-form="final" 
d="M393 0h-11q-257 0 -255 394q2 236 25 594q12 105 65 102q60 -4 51 -122q-17 -215 -18 -536q-5 -83 4 -142t28 -96t47.5 -53.5t61.5 -13.5h2v-127zM227 1384q74 -19 74 -67q0 -41 -43 -86t-79 -45q-20 0 -20 18q0 36 63 102q-63 11 -73 24t-10 40q0 74 83 111q10 5 26 -4
t16 -27q0 -22 -37 -66z" />
    <glyph glyph-name="uni0624" unicode="&#x624;" horiz-adv-x="488" arabic-form="isolated" 
d="M448 164q0 -190 -75 -294t-149 -141q-81 -34 -119 -33q-57 0 -58 46t69 73q76 28 137.5 93.5t68.5 147.5q-50 -10 -67 -10q-96 0 -96 106q0 89 38 146q45 72 125 73q63 -1 99 -77q23 -60 27 -130zM150 606q74 -19 74 -67q0 -41 -43 -86t-79 -45q-20 0 -20 18q0 36 63 102
q-63 11 -73 24t-10 40q0 74 83 111q10 5 26 -4t16 -27q0 -22 -37 -66z" />
    <glyph glyph-name="uniFE86" unicode="&#x624;" horiz-adv-x="506" arabic-form="final" 
d="M433 8q-50 -148 -160.5 -245.5t-193.5 -97.5q-27 0 -42 11t-13 38.5t55 55.5q106 63 157.5 124t75.5 118q-132 9 -132 110q20 172 143 201q124 0 130 -191q31 -5 55 -5v-127q-47 0 -75 8zM150 606q74 -19 74 -67q0 -41 -43 -86t-79 -45q-20 0 -20 18q0 36 63 102
q-63 11 -73 24t-10 40q0 74 83 111q10 5 26 -4t16 -27q0 -22 -37 -66z" />
    <glyph glyph-name="uni0625" unicode="&#x625;" horiz-adv-x="371" arabic-form="isolated" 
d="M286 1046q-5 -125 -1 -365q1 -248 -4 -365q-5 -120 -16 -210q-15 -107 -81 -111q-41 -3 -41 75q0 24 1 49q19 102 22 462q2 388 9 456q5 60 57 64q23 0 39 -16t15 -39zM229 -174q74 -19 74 -67q0 -41 -43 -86t-79 -45q-20 0 -20 18q0 36 63 102q-63 11 -73 24t-10 40
q0 74 83 111q10 5 26 -4t16 -27q0 -22 -37 -66z" />
    <glyph glyph-name="uniFE88" unicode="&#x625;" horiz-adv-x="391" arabic-form="final" 
d="M393 0h-11q-257 0 -255 394q2 236 25 594q12 105 65 102q60 -4 51 -122q-17 -215 -18 -536q-5 -83 4 -142t28 -96t47.5 -53.5t61.5 -13.5h2v-127zM227 -174q74 -19 74 -67q0 -41 -43 -86t-79 -45q-20 0 -20 18q0 36 63 102q-63 11 -73 24t-10 40q0 74 83 111q10 5 26 -4
t16 -27q0 -22 -37 -66z" />
    <glyph glyph-name="uni0626" unicode="&#x626;" horiz-adv-x="1212" arabic-form="isolated" 
d="M1175 523q-9 -58 -43 -58q-136 -13 -243 -101q-94 -74 -94 -132q0 -7 2 -11q7 -32 57 -51q67 -30 83 -48q43 -38 43 -114q0 -17 -1 -40q-27 -211 -174 -331q-128 -109 -299 -108q-156 2 -265 88q-54 39 -86.5 110.5t-36 167t26.5 211t99 242.5q29 46 72 34t23 -85
q-30 -61 -53 -120q-56 -138 -56 -262v-29q6 -118 87 -183q72 -62 180 -63q134 1 239 88q118 95 131 249q6 63 -70 93q-89 35 -112 92q-10 22 -10 47q0 69 61 157q62 89 160 153.5t203 80.5q8 1 15 1q66 0 61 -78zM417 626q74 -19 74 -67q0 -41 -43 -86t-79 -45q-20 0 -20 18
q0 36 63 102q-63 11 -73 24t-10 40q0 74 83 111q10 5 26 -4t16 -27q0 -22 -37 -66z" />
    <glyph glyph-name="uniFE8A" unicode="&#x626;" horiz-adv-x="986" arabic-form="final" 
d="M997 127v-127h-116q-97 0 -100 -34q-2 -15 21 -22q45 -10 81 -48t32 -100q-8 -191 -134 -314.5t-323 -128.5q-75 1 -137.5 24.5t-110 65t-74.5 100t-30 128.5q1 131 61 262t121 189q24 21 48.5 20.5t42 -19t12 -43t-16.5 -36.5q-47 -49 -94.5 -161.5t-47.5 -200.5
q4 -58 30 -99t66 -65.5t91.5 -33t108.5 -4.5q103 12 181 93.5t84 203.5q-3 29 -23.5 47t-66.5 41q-51 27 -48 102q13 160 232 160h110zM450 404q74 -19 74 -67q0 -41 -43 -86t-79 -45q-20 0 -20 18q0 36 63 102q-63 11 -73 24t-10 40q0 74 83 111q10 5 26 -4t16 -27
q0 -22 -37 -66z" />
    <glyph glyph-name="uniFE8B" unicode="&#x626;" horiz-adv-x="276" arabic-form="initial" 
d="M115 693q74 -19 74 -67q0 -41 -43 -86t-79 -45q-20 0 -20 18q0 36 63 102q-63 11 -73 24t-10 40q0 74 83 111q10 5 26 -4t16 -27q0 -22 -37 -66zM-7 0v127h12q72 23 98 85q12 39 17 126q0 66 58 66q52 0 52 -93q1 -106 -33 -184q-27 -57 -79 -91.5t-114 -35.5h-11z" />
    <glyph glyph-name="uniFE8C" unicode="&#x626;" horiz-adv-x="431" arabic-form="medial" 
d="M202 244q12 50 59 50h17q41 -9 45 -73q0 -81 84 -94h32l-1 -127h-58q-101 0 -132 103q-49 -103 -258 -103v127q79 -3 137 30q64 31 75 87zM242 674q71 -19 71 -69q0 -37 -43 -83.5t-78 -46.5q-18 0 -18 20q0 36 59 102q-59 11 -69 24.5t-10 36.5q0 76 79 111
q13 8 27.5 -1.5t14.5 -24.5q0 -23 -33 -69z" />
    <glyph glyph-name="uni0627" unicode="&#x627;" horiz-adv-x="371" arabic-form="isolated" 
d="M284 1046q-5 -125 -1 -365q1 -248 -4 -365q-5 -120 -16 -210q-15 -107 -81 -111q-41 -3 -41 75q0 24 1 49q19 102 22 462q2 388 9 456q5 60 57 64q23 0 39 -16t15 -39z" />
    <glyph glyph-name="uniFE8E" unicode="&#x627;" horiz-adv-x="391" arabic-form="final" 
d="M393 0h-11q-257 0 -255 394q2 236 25 594q12 105 65 102q60 -4 51 -122q-17 -215 -18 -536q-5 -83 4 -142t28 -96t47.5 -53.5t61.5 -13.5h2v-127z" />
    <glyph glyph-name="uni0628" unicode="&#x628;" horiz-adv-x="1885" arabic-form="isolated" 
d="M972 -388q-19 -51 -73 -51q-15 0 -24 5q-54 15 -54 72v24q17 53 78 53q11 0 23 -4q53 -16 53 -73q0 -14 -3 -26zM1831 382q-92 -227 -481 -318q-230 -52 -612 -61h-86q-247 0 -372 58q-178 82 -168 301q2 42 23 71.5t55 21t39 -107.5q-6 -215 449 -215h67q340 8 546 52
q298 64 407 215q21 38 40 74q27 47 62 42q48 -6 48 -63q0 -31 -17 -70z" />
    <glyph glyph-name="uniFE90" unicode="&#x628;" horiz-adv-x="1929" arabic-form="final" 
d="M920 -366q-18 -53 -73 -53q-32 0 -54.5 23t-22.5 52q0 14 5 26q14 55 72 55q12 0 24 -4q55 -20 55 -77q0 -12 -6 -22zM1941 127v-127h-20q-95 0 -158.5 38t-93.5 82t-24 44q-136 -88 -361 -132t-539 -41q-362 4 -541 96q-57 35 -88 80t-37 144q-6 97 53 101.5t63 -49.5
q5 -63 26 -108.5t80 -72.5q201 -70 453 -69q230 -1 417 27q340 49 435 178q25 42 57 44q46 -2 66 -90q15 -63 68 -104t127 -41h17z" />
    <glyph glyph-name="uniFE91" unicode="&#x628;" horiz-adv-x="277" arabic-form="initial" 
d="M202 -323q-20 -53 -76 -53q-12 0 -23 4q-56 16 -56 74q0 13 6 26q15 52 73 52q14 0 26 -3q54 -21 54 -75q0 -12 -4 -25zM-2 127q77 11 107 85q16 39 20 126q0 69 55 67t55 -94q2 -106 -29.5 -171.5t-83 -99t-124.5 -40.5v127z" />
    <glyph glyph-name="uniFE92" unicode="&#x628;" horiz-adv-x="420" arabic-form="medial" 
d="M293 -333q-18 -51 -72 -51q-13 0 -25 2q-53 20 -53 78q0 11 1 25q16 51 77 51q12 0 26 -3q50 -16 50 -74q0 -14 -4 -28zM210 244q12 50 58 50h18q42 -9 42 -71q2 -51 27 -73.5t67 -22.5v-127q-23 0 -48 3.5t-49 13t-44 29t-35 50.5q-58 -96 -251 -96v127q81 -3 135.5 23
t79.5 94z" />
    <glyph glyph-name="uni067E" unicode="&#x67e;" horiz-adv-x="1903" arabic-form="isolated" 
d="M1000 -568q-16 -52 -73 -52q-32 0 -54 22.5t-22 54.5q0 13 3 22q17 57 71 57q14 0 28 -8q53 -17 53 -71q0 -12 -6 -25zM1092 -363q-15 -54 -73 -54q-31 0 -54 23t-23 54q0 14 4 27q18 50 73 50q14 0 26 -3q54 -17 54 -74q0 -12 -7 -23zM895 -363q-16 -54 -72 -54
q-33 0 -55 23t-22 54q0 14 3 27q18 50 72 50q13 0 26 -3q53 -17 53 -74q0 -10 -5 -23zM1852 382q-92 -227 -481 -318q-229 -52 -611 -61h-86q-247 0 -374 58q-177 82 -167 301q2 42 22 71.5t55 21t41 -107.5q-9 -215 446 -215h70q342 8 544 52q299 64 409 215q20 38 39 74
q25 47 63 42q47 -6 47 -63q0 -31 -17 -70z" />
    <glyph glyph-name="uniFB57" unicode="&#x67e;" horiz-adv-x="1940" arabic-form="final" 
d="M871 -405q-20 -56 -77 -56q-30 0 -53 23t-23 55q0 12 3 26q18 52 73 52q12 0 28 -4q50 -17 50 -74q0 -10 -1 -22zM975 -610q-20 -52 -77 -52q-27 0 -50 22.5t-23 55.5q0 11 4 20q15 56 69 56q14 0 26 -6q53 -17 53 -70q0 -15 -2 -26zM1067 -405q-18 -56 -75 -56
q-31 0 -53.5 23t-22.5 55q0 12 2 26q19 52 74 52q12 0 26 -4q51 -17 51 -74q0 -10 -2 -22zM1944 127v-127h-18q-94 0 -158.5 38t-95 82t-25.5 44q-134 -88 -359.5 -132t-537.5 -41q-365 4 -541 96q-59 35 -89 80t-39 144q-3 97 55.5 101.5t63.5 -49.5q5 -63 25.5 -108.5
t79.5 -72.5q202 -70 454 -69q228 -1 415 27q339 49 436 178q26 42 58 44q42 -2 63 -90q16 -63 68.5 -104t127.5 -41h17z" />
    <glyph glyph-name="uniFB58" unicode="&#x67e;" horiz-adv-x="363" arabic-form="initial" 
d="M236 -509q-17 -55 -73 -55q-32 0 -54.5 23t-22.5 54q0 12 1 24q19 54 76 54q13 0 24 -6q53 -17 53 -72q0 -11 -4 -22zM329 -319q-19 -54 -74 -54q-33 0 -55.5 22t-22.5 53q0 15 3 24q18 55 72 55q13 0 27 -5q52 -19 52 -74q0 -11 -2 -21zM144 -319q-20 -53 -74 -53
q-30 0 -53 21.5t-23 53.5q0 14 4 26q15 52 70 52q17 0 27 -5q50 -19 50 -73q0 -12 -1 -22zM-2 127q77 11 109 85q13 39 17 126q2 69 56.5 67t54.5 -94q1 -106 -29 -171.5t-82 -99t-126 -40.5v127z" />
    <glyph glyph-name="uniFB59" unicode="&#x67e;" horiz-adv-x="415" arabic-form="medial" 
d="M283 -509q-19 -55 -77 -55q-30 0 -52.5 23t-22.5 54q0 12 2 24q16 54 73 54q13 0 26 -6q53 -17 53 -72q0 -11 -2 -22zM373 -319q-16 -54 -72 -54q-33 0 -56 22t-23 53q0 15 6 24q15 55 70 55q12 0 27 -5q53 -19 53 -74q0 -11 -5 -21zM191 -319q-21 -53 -74 -53
q-32 0 -54.5 21.5t-22.5 53.5q0 14 3 26q16 52 71 52q15 0 25 -5q53 -19 53 -73q0 -12 -1 -22zM206 244q12 50 58 50h19q41 -9 42 -71q3 -51 29 -73.5t68 -22.5v-127q-26 0 -51.5 3.5t-49.5 13t-43.5 29t-34.5 50.5q-58 -96 -249 -96v127q80 -3 134 23t78 94z" />
    <glyph glyph-name="uni062A" unicode="&#x62a;" horiz-adv-x="1872" arabic-form="isolated" 
d="M1072 637q-20 -53 -78 -53q-27 0 -51 22t-24 55q0 12 4 23q19 55 71 55q16 0 28 -5q54 -18 54 -73q0 -11 -4 -24zM873 637q-17 -52 -71 -52q-34 0 -56 21.5t-22 54.5q0 12 5 24q16 54 69 54q14 0 26 -5q52 -18 52 -73q0 -11 -3 -24zM1819 382q-92 -227 -480 -318
q-230 -52 -613 -61h-86q-246 0 -372 58q-179 82 -167 301q1 42 21.5 71.5t54.5 21t39 -107.5q-6 -215 449 -215h70q338 8 543 52q298 64 408 215q21 38 40 74q27 47 61 42q48 -6 48 -63q0 -31 -16 -70z" />
    <glyph glyph-name="uniFE96" unicode="&#x62a;" horiz-adv-x="1925" arabic-form="final" 
d="M861 677q-16 -55 -73 -55q-33 0 -55.5 24t-22.5 54q0 13 5 24q15 53 70 53q16 0 27 -4q53 -20 53 -73q0 -13 -4 -23zM1058 677q-17 -55 -75 -55q-30 0 -52 22t-22 56q0 11 5 24q15 53 69 53q14 0 26 -4q54 -20 54 -73q0 -13 -5 -23zM1937 127v-127h-20q-95 0 -158.5 38
t-93.5 82t-23 44q-135 -88 -360.5 -132t-540.5 -41q-362 4 -539 96q-58 35 -88 80t-39 144q-6 97 53 101.5t63 -49.5q6 -63 26.5 -108.5t82.5 -72.5q199 -70 452 -69q229 -1 415 27q341 49 435 178q27 42 58 44q45 -2 65 -90q15 -63 68 -104t128 -41h16z" />
    <glyph glyph-name="uniFE97" unicode="&#x62a;" horiz-adv-x="384" arabic-form="initial" 
d="M151 732q-16 -55 -73 -55q-32 0 -55 23t-23 53q0 14 3 25q19 55 73 55q15 0 29 -7q50 -15 50 -73q0 -9 -4 -21zM349 732q-19 -55 -73 -55q-33 0 -55 23t-22 53q0 14 1 25q19 51 72 51q14 0 27 -3q53 -15 53 -73q0 -13 -3 -21zM-3 127q78 11 110 85q13 39 17 126
q2 69 55.5 67t53.5 -94q4 -106 -27 -171.5t-84 -99t-125 -40.5v127z" />
    <glyph glyph-name="uniFE98" unicode="&#x62a;" horiz-adv-x="444" arabic-form="medial" 
d="M195 585q-17 -52 -74 -52q-31 0 -55 23t-24 55q0 11 4 21q16 56 75 56q12 0 25 -4q53 -21 53 -73q0 -14 -4 -26zM391 585q-15 -52 -74 -52q-34 0 -54.5 23t-20.5 55q0 11 3 21q15 56 69 56q17 0 27 -4q52 -21 52 -73q0 -14 -2 -26zM207 244q13 50 59 50h15q40 -9 44 -73
q5 -83 85 -94h42v-127h-45q-121 3 -156 98q-51 -97 -258 -98v127q81 -3 137 22.5t77 94.5z" />
    <glyph glyph-name="uni062B" unicode="&#x62b;" horiz-adv-x="1856" arabic-form="isolated" 
d="M1799 382q-93 -227 -479 -318q-231 -52 -612 -61h-86q-249 0 -374 58q-180 82 -169 301q3 42 23 71.5t55.5 21t40.5 -107.5q-7 -215 449 -215h67q341 8 546 52q298 64 409 215q20 38 36 74q27 47 63 42q48 -6 48 -63q0 -31 -17 -70zM944 858q-20 -54 -77 -54q-10 0 -22 1
q-54 20 -54 77q0 15 5 26q15 50 72 50q13 0 25 -3q52 -18 52 -74q0 -12 -1 -23zM845 661q-17 -50 -74 -50q-31 0 -54.5 20.5t-23.5 55.5q0 11 4 24q19 53 74 53q14 0 25 -6q55 -18 55 -71q0 -13 -6 -26zM1055 666q-20 -53 -77 -53q-33 0 -55 23t-22 54q0 15 3 26
q20 51 74 51q12 0 25 -3q53 -20 53 -74q0 -13 -1 -24z" />
    <glyph glyph-name="uniFE9A" unicode="&#x62b;" horiz-adv-x="1914" arabic-form="final" 
d="M1923 127v-127h-18q-96 0 -158.5 38t-92.5 82t-26 44q-134 -88 -359 -132t-541 -41q-361 4 -539 96q-58 35 -88.5 80t-40.5 144q-3 97 55.5 101.5t63.5 -49.5q6 -63 27 -108.5t80 -72.5q201 -70 453 -69q230 -1 417 27q338 49 434 178q26 42 58 44q44 -2 64 -90
q17 -63 69 -104t128 -41h14zM917 800q-17 -53 -72 -53q-13 0 -24 6q-55 16 -55 76q0 8 2 21q19 53 77 53q13 0 26 -2q53 -18 53 -76q0 -12 -7 -25zM1027 611q-16 -53 -71 -53q-32 0 -55 23t-23 53q0 13 4 24q16 53 71 53q16 0 28 -4q53 -19 53 -73q0 -9 -7 -23zM821 605
q-18 -52 -74 -52q-32 0 -54 22t-22 55q0 11 3 22q17 55 73 55q13 0 25 -2q53 -21 53 -75q0 -12 -4 -25z" />
    <glyph glyph-name="uniFE9B" unicode="&#x62b;" horiz-adv-x="421" arabic-form="initial" 
d="M291 769q-21 -53 -75 -53q-12 0 -25 4q-54 17 -54 75q0 10 5 22q16 55 74 55q12 0 28 -4q50 -18 50 -73q0 -16 -3 -26zM386 581q-18 -54 -76 -54q-30 0 -52.5 23t-22.5 55q0 12 3 23q17 56 72 56q14 0 26 -5q53 -20 53 -74q0 -11 -3 -24zM191 579q-19 -54 -74 -54
q-33 0 -55.5 21.5t-22.5 54.5q0 12 6 25q15 53 71 53q12 0 26 -5q52 -22 52 -73q0 -12 -3 -22zM-4 127q80 11 110 85q14 39 19 126q0 69 54.5 67t54.5 -94q2 -106 -28 -171.5t-83 -99t-127 -40.5v127z" />
    <glyph glyph-name="uniFE9C" unicode="&#x62b;" horiz-adv-x="415" arabic-form="medial" 
d="M302 769q-21 -53 -74 -53q-11 0 -25 4q-56 17 -56 75q0 10 4 22q19 55 77 55q11 0 26 -4q53 -18 53 -73q0 -16 -5 -26zM397 581q-17 -54 -74 -54q-32 0 -53 23t-21 55q0 12 2 23q13 56 72 56q12 0 25 -5q54 -20 54 -74q0 -11 -5 -24zM202 579q-18 -54 -73 -54
q-33 0 -55 21.5t-22 54.5q0 12 4 25q15 53 71 53q12 0 24 -5q54 -22 54 -73q0 -12 -3 -22zM208 244q11 50 57 50h18q42 -9 42 -71q3 -51 29.5 -73.5t68.5 -22.5v-127q-26 0 -51 3.5t-49.5 13t-44.5 29t-35 50.5q-58 -96 -249 -96v127q80 -3 134.5 23t79.5 94z" />
    <glyph glyph-name="uni062C" unicode="&#x62c;" horiz-adv-x="979" arabic-form="isolated" 
d="M661 -305q-23 -51 -76 -51q-11 0 -21 4q-51 19 -51 73q0 13 3 23q19 48 74 48q13 0 25 -4q49 -19 49 -73q0 -12 -3 -20zM833 303q-5 -74 -119 -127q-176 -66 -324 -201.5t-163 -312.5q-11 -250 191 -309.5t391 104.5q30 29 56.5 42.5t46 12.5t28 -15.5t4.5 -39.5
q-137 -204 -358.5 -233t-356 91.5t-121.5 341.5q11 85 45.5 171t102 168.5t169 157.5t244.5 134q-46 28 -154 31.5t-150 -21.5q-4 -3 -42 -44q-25 -29 -63 -23.5t-33 52.5q2 38 35 77.5t86 60.5q57 20 152.5 20t202.5 -26q136 -42 130 -112z" />
    <glyph glyph-name="uniFE9E" unicode="&#x62c;" horiz-adv-x="897" arabic-form="final" 
d="M574 -393q-12 0 -22 4q-49 18 -49 71q0 14 2 24q18 49 71 49q13 0 28 -6q49 -15 49 -71q0 -29 -24.5 -50t-54.5 -21zM842 303q-4 -74 -119 -127q-16 -5 -32 -13q55 -36 184 -36h33v-127h-77q-178 3 -269 98q-85 -52 -162 -121q-150 -138 -165 -315q-11 -250 191 -310
q203 -59 392 105q31 29 57 42.5t45 12.5t28.5 -15.5t3.5 -39.5q-136 -204 -357.5 -233t-356.5 91q-135 121 -121 342q10 85 45 171t102.5 168.5t169 157.5t244.5 134q-47 28 -155 32q-107 3 -148 -22q-5 -3 -44 -44q-24 -29 -61 -24q-38 6 -34 53q2 38 35 79q32 38 85 59
q57 20 153 20q95 0 203 -26q134 -42 130 -112z" />
    <glyph glyph-name="uniFE9F" unicode="&#x62c;" horiz-adv-x="675" arabic-form="initial" 
d="M281 84q-61 -33 -134 -59t-120 -25h-38v127h17q71 0 170 50q37 16 130 78q25 14 53 28.5t48 20.5q-30 5 -67 32q-43 26 -69.5 37t-46.5 11q-37 0 -96 -43q-35 -32 -62 -37.5t-41 21t22 91.5q78 97 177 97q90 -8 200 -84q44 -35 166 -52q53 -7 57 -56.5t-51 -69.5
q-55 -12 -156 -68zM377 -326q-20 -56 -78 -56q-8 0 -20 5q-52 25 -52 78q0 28 26 48t53 20q15 0 25 -3q51 -22 51 -72q0 -12 -5 -20z" />
    <glyph glyph-name="uniFEA0" unicode="&#x62c;" horiz-adv-x="691" arabic-form="medial" 
d="M299 -370q-12 0 -23 4q-47 21 -47 73q0 14 1 22q19 51 73 51q12 0 26 -4q52 -20 52 -74q0 -28 -26 -50t-56 -22zM287 84q-64 -33 -137 -59t-120 -25h-39v127h18q70 0 173 50q34 16 128 78q25 14 52.5 28.5t46.5 20.5q-28 5 -66 32q-44 26 -69.5 37t-45.5 11
q-39 0 -96 -43q-35 -32 -61.5 -37.5t-42 21t21.5 91.5q76 97 179 97q90 -8 199 -84q44 -35 165 -52q53 -7 58 -56.5t-51 -69.5q-46 -10 -128 -53q22 -71 226 -71v-127q-172 0 -247 36t-92 91z" />
    <glyph glyph-name="uni0686" unicode="&#x686;" horiz-adv-x="979" arabic-form="isolated" 
d="M548 -224q-20 -54 -77 -54q-31 0 -54 23.5t-23 54.5q0 12 4 23q19 53 73 53q13 0 27 -2q52 -19 52 -74q0 -10 -2 -24zM653 -429q-19 -54 -77 -54q-28 0 -50.5 23t-22.5 56q0 11 1 21q18 57 72 57q12 0 25 -5q54 -20 54 -73q0 -13 -2 -25zM744 -224q-17 -54 -74 -54
q-32 0 -54 23.5t-22 54.5q0 12 2 23q18 53 74 53q13 0 26 -2q51 -19 51 -74q0 -12 -3 -24zM833 303q-5 -74 -119 -127q-176 -66 -324 -201.5t-163 -312.5q-11 -250 191 -309.5t391 104.5q30 29 56.5 42.5t46 12.5t28 -15.5t4.5 -39.5q-137 -204 -358.5 -233t-356 91.5
t-121.5 341.5q11 85 45.5 171t102 168.5t169 157.5t244.5 134q-46 28 -154 31.5t-150 -21.5q-4 -3 -42 -44q-25 -29 -63 -23.5t-33 52.5q2 38 35 77.5t86 60.5q57 20 152.5 20t202.5 -26q136 -42 130 -112z" />
    <glyph glyph-name="uniFB7B" unicode="&#x686;" horiz-adv-x="895" arabic-form="final" 
d="M539 -256q-19 -53 -74 -53q-32 0 -55.5 23t-23.5 54q0 13 3 25q20 53 76 53q10 0 26 -3q53 -18 53 -75q0 -8 -5 -24zM644 -461q-18 -50 -75 -50q-30 0 -53 22t-23 53q0 11 4 21q16 59 72 59q11 0 24 -6q56 -20 56 -74q0 -12 -5 -25zM734 -256q-16 -53 -72 -53
q-32 0 -54.5 23t-22.5 54q0 13 4 25q17 53 73 53q13 0 26 -3q51 -18 51 -75q0 -12 -5 -24zM840 303q-4 -74 -119 -127q-16 -5 -32 -13q55 -36 184 -36h33v-127h-77q-178 3 -269 98q-85 -52 -162 -121q-150 -138 -165 -315q-11 -250 191 -310q203 -59 392 105q31 29 57 42.5
t45 12.5t28.5 -15.5t3.5 -39.5q-136 -204 -357.5 -233t-356.5 91q-135 121 -121 342q10 85 46 171t102.5 168.5t168 157.5t244.5 134q-47 28 -155 32q-107 3 -148 -22q-5 -3 -44 -44q-22 -29 -61 -24q-37 6 -34 53q2 38 35 79q32 38 85 59q58 20 153 20q97 0 204 -26
q133 -42 129 -112z" />
    <glyph glyph-name="uniFB7C" unicode="&#x686;" horiz-adv-x="675" arabic-form="initial" 
d="M281 84q-63 -33 -135.5 -59t-119.5 -25h-38v127h16q73 0 172 50q36 16 130 78q24 14 52.5 28.5t48.5 20.5q-30 5 -67 32q-43 26 -69.5 37t-46.5 11q-37 0 -96 -43q-36 -32 -62.5 -37.5t-41 21t21.5 91.5q77 97 178 97q89 -8 200 -84q42 -35 165 -52q53 -7 57.5 -56.5
t-50.5 -69.5q-55 -12 -156 -68zM319 -277q-20 -53 -75 -53q-33 0 -55.5 23.5t-22.5 53.5q0 13 2 25q19 51 76 51q11 0 24 -2q53 -19 53 -74q0 -10 -2 -24zM423 -483q-20 -52 -76 -52q-28 0 -51.5 23.5t-23.5 55.5q0 12 5 22q15 56 70 56q12 0 24 -6q53 -20 53 -72
q0 -13 -1 -27zM514 -277q-16 -53 -74 -53q-31 0 -53.5 23.5t-22.5 53.5q0 13 2 25q18 51 74 51q13 0 26 -2q51 -19 51 -74q0 -13 -3 -24z" />
    <glyph glyph-name="uniFB7D" unicode="&#x686;" horiz-adv-x="694" arabic-form="medial" 
d="M329 -318q-19 -54 -76 -54q-32 0 -55.5 24t-23.5 54q0 11 5 23q19 53 74 53q12 0 26 -2q52 -19 52 -74q0 -10 -2 -24zM432 -522q-17 -53 -73 -53q-30 0 -52.5 22.5t-22.5 54.5q0 11 1 22q17 57 74 57q11 0 24 -6q54 -19 54 -73q0 -11 -5 -24zM524 -318q-17 -54 -74 -54
q-32 0 -54.5 24t-22.5 54q0 11 4 23q18 53 73 53q14 0 26 -2q52 -19 52 -74q0 -12 -4 -24zM287 84q-62 -33 -135 -59t-120 -25h-39v127h17q70 0 171 50q36 16 130 78q24 14 51.5 28.5t48.5 20.5q-29 5 -67 32q-44 26 -70.5 37t-45.5 11q-38 0 -95 -43q-35 -32 -61.5 -37.5
t-41.5 21t22 91.5q74 97 178 97q90 -8 199 -84q45 -35 165 -52q54 -7 58.5 -56.5t-50.5 -69.5q-48 -10 -128 -53q22 -71 222 -71v-127q-168 0 -243.5 36t-93.5 91z" />
    <glyph glyph-name="uni062D" unicode="&#x62d;" horiz-adv-x="979" arabic-form="isolated" 
d="M833 303q-5 -74 -119 -127q-176 -66 -324 -201.5t-163 -312.5q-11 -250 191 -309.5t391 104.5q30 29 56.5 42.5t46 12.5t28 -15.5t4.5 -39.5q-137 -204 -358.5 -233t-356 91.5t-121.5 341.5q11 85 45.5 171t102 168.5t169 157.5t244.5 134q-46 28 -154 31.5t-150 -21.5
q-4 -3 -42 -44q-25 -29 -63 -23.5t-33 52.5q2 38 35 77.5t86 60.5q57 20 152.5 20t202.5 -26q136 -42 130 -112z" />
    <glyph glyph-name="uniFEA2" unicode="&#x62d;" horiz-adv-x="899" arabic-form="final" 
d="M841 303q-3 -74 -119 -127q-16 -5 -32 -13q57 -36 185 -36h32v-127h-76q-177 3 -269 98q-84 -52 -162 -121q-149 -138 -165 -315q-10 -250 191 -310q202 -59 392 105q29 29 55.5 42.5t46 12.5t28.5 -15.5t4 -39.5q-137 -204 -358 -233t-356 91q-137 121 -122 342
q11 85 46 171t102 168.5t169 157.5t244 134q-46 28 -154 32q-107 3 -150 -22q-4 -3 -42 -44q-25 -29 -61 -24q-39 6 -33 53q1 38 34 79q33 38 86 59q55 20 151 20t204 -26q134 -42 129 -112z" />
    <glyph glyph-name="uniFEA3" unicode="&#x62d;" horiz-adv-x="685" arabic-form="initial" 
d="M289 84q-64 -33 -136.5 -59t-119.5 -25h-39v127h18q71 0 171 50q34 16 130 78q23 14 52 28.5t48 20.5q-30 5 -66 32q-45 26 -71.5 37t-45.5 11q-38 0 -95 -43q-35 -32 -62 -37.5t-41.5 21t21.5 91.5q77 97 178 97q91 -8 199 -84q45 -35 165 -52q55 -7 59.5 -56.5
t-50.5 -69.5q-56 -12 -159 -68z" />
    <glyph glyph-name="uniFEA4" unicode="&#x62d;" horiz-adv-x="694" arabic-form="medial" 
d="M287 84q-62 -33 -135 -59t-120 -25h-39v127h17q70 0 171 50q36 16 130 78q24 14 51.5 28.5t48.5 20.5q-29 5 -67 32q-44 26 -70.5 37t-45.5 11q-38 0 -95 -43q-35 -32 -61.5 -37.5t-41.5 21t22 91.5q74 97 178 97q90 -8 199 -84q45 -35 165 -52q54 -7 58.5 -56.5
t-50.5 -69.5q-48 -10 -128 -53q22 -71 222 -71v-127q-168 0 -243.5 36t-93.5 91z" />
    <glyph glyph-name="uni062E" unicode="&#x62e;" horiz-adv-x="979" arabic-form="isolated" 
d="M833 303q-5 -74 -119 -127q-176 -66 -324 -201.5t-163 -312.5q-11 -250 191 -309.5t391 104.5q30 29 56.5 42.5t46 12.5t28 -15.5t4.5 -39.5q-137 -204 -358.5 -233t-356 91.5t-121.5 341.5q11 85 45.5 171t102 168.5t169 157.5t244.5 134q-46 28 -154 31.5t-150 -21.5
q-4 -3 -42 -44q-25 -29 -63 -23.5t-33 52.5q2 38 35 77.5t86 60.5q57 20 152.5 20t202.5 -26q136 -42 130 -112zM478 634q-12 0 -23 3q-48 18 -48 73q0 13 3 22q19 47 72 47q13 0 24 -2q53 -19 53 -72q0 -28 -26.5 -49.5t-54.5 -21.5z" />
    <glyph glyph-name="uniFEA6" unicode="&#x62e;" horiz-adv-x="897" arabic-form="final" 
d="M842 303q-4 -74 -119 -127q-16 -5 -32 -13q55 -36 184 -36h33v-127h-77q-178 3 -269 98q-85 -52 -162 -121q-150 -138 -165 -315q-11 -250 191 -310q203 -59 392 105q31 29 57 42.5t45 12.5t28.5 -15.5t3.5 -39.5q-136 -204 -357.5 -233t-356.5 91q-135 121 -121 342
q10 85 45 171t102.5 168.5t169 157.5t244.5 134q-47 28 -155 32q-107 3 -148 -22q-5 -3 -44 -44q-24 -29 -61 -24q-38 6 -34 53q2 38 35 79q32 38 85 59q57 20 153 20q95 0 203 -26q134 -42 130 -112zM480 634q-13 0 -24 3q-47 18 -47 73q0 13 1 22q19 47 72 47q12 0 26 -2
q51 -19 51 -72q0 -28 -25.5 -49.5t-53.5 -21.5z" />
    <glyph glyph-name="uniFEA7" unicode="&#x62e;" horiz-adv-x="684" arabic-form="initial" 
d="M282 84q-61 -33 -134 -59t-120 -25h-39v127h17q72 0 171 50q34 16 131 78q24 14 52 28.5t47 20.5q-29 5 -65 32q-45 26 -72 37t-47 11q-36 0 -94 -43q-35 -32 -61 -37.5t-41.5 21t19.5 91.5q78 97 178 97q91 -8 202 -84q42 -35 164 -52q54 -7 58 -56.5t-51 -69.5
q-54 -12 -157 -68zM307 771q-21 -51 -77 -51q-9 0 -20 1q-52 25 -52 78q0 30 25.5 49.5t56.5 19.5q11 0 22 -6q50 -17 50 -71q0 -12 -5 -20z" />
    <glyph glyph-name="uniFEA8" unicode="&#x62e;" horiz-adv-x="691" arabic-form="medial" 
d="M249 700q-13 0 -26 5q-47 18 -47 72q0 13 2 23q19 48 72 48q13 0 26 -3q52 -20 52 -74q0 -27 -26 -49t-53 -22zM287 84q-64 -33 -137 -59t-120 -25h-39v127h18q70 0 173 50q34 16 128 78q25 14 52.5 28.5t46.5 20.5q-28 5 -66 32q-44 26 -69.5 37t-45.5 11q-39 0 -96 -43
q-35 -32 -61.5 -37.5t-42 21t21.5 91.5q76 97 179 97q90 -8 199 -84q44 -35 165 -52q53 -7 58.5 -56.5t-51.5 -69.5q-46 -10 -128 -53q22 -71 226 -71v-127q-172 0 -247 36t-92 91z" />
    <glyph glyph-name="uni062F" unicode="&#x62f;" horiz-adv-x="589" arabic-form="isolated" 
d="M544 261q-8 -84 -57.5 -142t-150.5 -118q-117 -67 -198 -83q-48 -9 -66 13.5t-12 49.5q14 31 121 86t142 79q87 64 90 139q0 45 -145 220q-14 17 -14 42.5t17 46t36 21t42 -13.5q51 -33 117 -128q79 -117 79 -195q0 -7 -1 -17z" />
    <glyph glyph-name="uniFEAA" unicode="&#x62f;" horiz-adv-x="654" arabic-form="final" 
d="M432 124q-44 -58 -147.5 -115.5t-187.5 -76.5q-57 -3 -65.5 37.5t34.5 64.5q26 10 126.5 64.5t148 113.5t71 149.5t42.5 174.5q13 45 64 41t55 -54q0 -10 -4 -20q-12 -62 -40 -202q-12 -90 23 -132t109 -42v-127q-26 0 -60 4t-67.5 18t-61.5 38.5t-40 63.5z" />
    <glyph glyph-name="uni0630" unicode="&#x630;" horiz-adv-x="581" arabic-form="isolated" 
d="M276 816q-10 0 -19 6q-50 21 -50 75q0 28 24 47.5t54 19.5q28 0 50 -23.5t22 -52.5t-26 -50.5t-55 -21.5zM560 261q-10 -84 -59.5 -142t-150.5 -118q-114 -67 -199 -83q-47 -9 -65 13.5t-12 49.5q14 31 121.5 86t141.5 79q86 64 90 139q2 45 -144 220q-13 17 -13 42.5
t16.5 46t35.5 21t40 -13.5q52 -33 119 -128q79 -117 79 -195v-17z" />
    <glyph glyph-name="uniFEAC" unicode="&#x630;" horiz-adv-x="654" arabic-form="final" 
d="M456 917q-12 0 -21 4q-52 20 -52 77q0 28 24 47t54 19q14 0 26 -4q48 -17 48 -70q0 -32 -25.5 -52.5t-53.5 -20.5zM432 124q-44 -58 -147.5 -115.5t-187.5 -76.5q-57 -3 -65.5 37.5t34.5 64.5q26 10 126.5 64.5t148 113.5t71 149.5t42.5 174.5q13 45 64 41t55 -54
q0 -10 -4 -20q-12 -62 -40 -202q-12 -90 23 -132t109 -42v-127q-26 0 -60 4t-67.5 18t-61.5 38.5t-40 63.5z" />
    <glyph glyph-name="uni0631" unicode="&#x631;" horiz-adv-x="521" arabic-form="isolated" 
d="M475 193q1 -80 -58 -221.5t-187.5 -229t-195.5 -104.5q-20 -4 -39 -4q-59 0 -59 49q0 24 20 34q58 36 158 91q211 127 255 393q15 61 56 60.5t50 -68.5z" />
    <glyph glyph-name="uniFEAE" unicode="&#x631;" horiz-adv-x="494" arabic-form="final" 
d="M496 0h-14q-39 -23 -76 -93q-98 -190 -256 -283q-72 -43 -133 -49q-32 0 -43.5 13.5t-11.5 29.5q0 33 66 72q44 21 80.5 45.5t70.5 56.5q43 43 80 101t84 146q44 74 139 88h14v-127z" />
    <glyph glyph-name="uni0632" unicode="&#x632;" horiz-adv-x="532" arabic-form="isolated" 
d="M387 542q-31 0 -52.5 23.5t-21.5 55.5q0 26 23.5 46.5t54.5 20.5q11 0 24 -4q50 -19 50 -72q0 -28 -25 -49t-53 -21zM486 193q0 -80 -59 -221.5t-187 -229t-196 -104.5q-20 -4 -38 -4q-59 0 -59 49q0 24 19 34q58 36 158 91q211 127 254 393q14 61 56.5 60.5t51.5 -68.5z
" />
    <glyph glyph-name="uniFEB0" unicode="&#x632;" horiz-adv-x="488" arabic-form="final" 
d="M341 426q-19 -55 -77 -55q-13 0 -21 3q-54 20 -54 76q0 13 1 25q19 52 74 52q14 0 26 -4q54 -18 54 -73q0 -13 -3 -24zM492 0h-13q-39 -23 -78 -93q-98 -190 -254 -283q-74 -43 -135 -49q-31 0 -42.5 13.5t-11.5 29.5q0 33 66 72q43 21 81 45.5t71 56.5q41 43 77.5 101
t83.5 146q46 74 142 88h13v-127z" />
    <glyph glyph-name="uni0698" unicode="&#x698;" horiz-adv-x="592" arabic-form="isolated" 
d="M422 754q-17 -49 -73 -49q-13 0 -25 2q-54 18 -54 75q0 10 4 22q14 54 75 54q13 0 25 -1q53 -20 53 -78q0 -10 -5 -25zM324 560q-18 -52 -73 -52q-31 0 -53.5 22.5t-22.5 54.5q0 12 2 23q18 55 74 55q11 0 25 -5q52 -20 52 -73q0 -12 -4 -25zM533 566q-18 -52 -75 -52
q-31 0 -53.5 22t-22.5 55q0 10 4 23q19 54 72 54q14 0 26 -7q53 -20 53 -70q0 -12 -4 -25zM525 193q1 -80 -58.5 -221.5t-187.5 -229t-195 -104.5q-19 -4 -39 -4q-59 0 -59 49q0 24 21 34q58 36 156 91q211 127 255 393q16 61 57.5 60.5t49.5 -68.5z" />
    <glyph glyph-name="uniFB8B" unicode="&#x698;" horiz-adv-x="574" arabic-form="final" 
d="M368 638q-18 -53 -76 -53q-11 0 -22 6q-54 14 -54 74q0 12 2 22q19 53 77 53q13 0 26 -6q51 -14 51 -71q0 -13 -4 -25zM477 447q-17 -53 -75 -53q-30 0 -51.5 23t-21.5 56q0 10 2 22q16 54 71 54q13 0 26 -4q54 -19 54 -72q0 -12 -5 -26zM270 443q-19 -55 -74 -55
q-31 0 -53.5 24.5t-22.5 55.5q0 12 4 22q17 55 72 55q14 0 27 -6q53 -17 53 -71q0 -14 -6 -25zM582 0h-16q-39 -23 -77 -93q-98 -190 -256 -283q-74 -43 -133 -49q-32 0 -43.5 13.5t-11.5 29.5q0 33 65 72q43 21 81 45.5t72 56.5q42 43 78.5 101t81.5 146q48 74 143 88h16
v-127z" />
    <glyph glyph-name="uni0633" unicode="&#x633;" horiz-adv-x="1811" arabic-form="isolated" 
d="M1774 447q-14 -157 -104 -213q-52 -30 -99 -30q-58 0 -95 44q-47 -98 -167 -116q-45 -8 -86 6q-17 -357 -219 -594.5t-528 -228.5q-182 10 -282.5 119.5t-89.5 289.5t101 316q34 52 86.5 36.5t21.5 -99.5q-52 -90 -68.5 -179t3.5 -162.5t77.5 -124.5t153.5 -62
q151 -11 278.5 54.5t227.5 218.5q108 189 113 405q0 59 -9 117q0 54 48 67q55 4 73 -23q36 -12 71 -12q47 0 80 18q30 17 35 42q39 107 71 110q60 1 61 -52q1 -76 48 -76q8 0 15 5q59 33 77 118q11 59 64 59q47 0 42 -53z" />
    <glyph glyph-name="uniFEB2" unicode="&#x633;" horiz-adv-x="1906" arabic-form="final" 
d="M1825 221q-7 -31 -2.5 -49.5t17.5 -28.5t32.5 -13t40.5 -3v-127q-41 0 -49 1q-82 6 -102 45q-22 -32 -59 -50.5t-85 -18.5q-61 0 -95 44q-44 -87 -125.5 -104t-129.5 -6q-16 -361 -219 -597q-201 -238 -529 -228q-179 9 -283 125t-80 317t113 338q33 53 86 37t24 -101
q-59 -111 -80.5 -210.5t-3.5 -178t75.5 -130t154.5 -64.5q148 -11 276 54.5t228 218.5q108 190 113 406q0 57 -4 88t-4 33q0 53 42.5 63t79.5 -21q35 -11 69 -11q48 0 81 17q31 18 37 42q37 109 68 110q60 2 64 -53q0 -74 47 -74q7 0 14 5q60 33 76 119q9 58 60.5 57
t51.5 -52z" />
    <glyph glyph-name="uniFEB3" unicode="&#x633;" horiz-adv-x="851" arabic-form="initial" 
d="M825 338q-22 -109 -89.5 -167.5t-135.5 -58.5q-39 0 -78 15q-48 -42 -93.5 -56.5t-101 -16.5t-96.5 29q-40 -39 -113.5 -61.5t-120.5 -21.5h-4v127q60 -1 102 21t56 50q35 87 64 90q48 6 53 -71q2 -40 57 -40q39 0 75 21q36 23 47 56q22 69 63 76q40 6 43 -47
q5 -47 36 -52.5t55 10.5q40 21 75 122q19 53 62.5 53t44.5 -60q0 -9 -1 -18z" />
    <glyph glyph-name="uniFEB4" unicode="&#x633;" horiz-adv-x="902" arabic-form="medial" 
d="M910 0h-8q-111 -2 -145 45q-60 -57 -156.5 -57t-128.5 51q-65 -52 -153.5 -52t-153.5 58q-26 -20 -70 -32.5t-99 -12.5v127h9q57 0 92 23q22 12 39 66q11 38 58.5 38t46.5 -38q-1 -28 13 -54q21 -35 54 -38q92 -2 121 84q16 53 64 50t47 -42q-2 -34 17 -61q19 -31 57 -31
q43 3 60.5 31t31.5 89q30 48 72.5 37.5t43.5 -62.5q-4 -27 2.5 -45t19 -27.5t29.5 -14.5t37 -5v-127z" />
    <glyph glyph-name="uni0634" unicode="&#x634;" horiz-adv-x="1824" arabic-form="isolated" 
d="M1500 1013q-17 -52 -73 -52q-12 0 -23 3q-55 17 -55 78q0 9 2 21q19 54 77 54q13 0 24 -5q54 -16 54 -75q0 -11 -6 -24zM1611 823q-18 -54 -75 -54q-30 0 -52.5 23t-22.5 54q0 12 4 24q18 55 71 55q12 0 25 -4q54 -20 54 -75q0 -10 -4 -23zM1404 820q-20 -53 -75 -53
q-31 0 -53 22.5t-22 53.5q0 14 4 22q13 56 71 56q12 0 26 -5q53 -19 53 -73q0 -14 -4 -23zM1773 447q-10 -157 -103 -213q-50 -30 -97 -30q-60 0 -94 44q-49 -98 -169 -116q-46 -8 -87 6q-14 -357 -217 -594.5t-529 -228.5q-182 10 -282.5 119.5t-89.5 289.5t101 316
q34 52 86 36.5t22 -99.5q-50 -90 -66.5 -179t3.5 -162.5t76.5 -124.5t152.5 -62q149 -11 278 54.5t229 218.5q105 189 111 405q0 59 -8 117q0 54 48 67q55 4 73 -23q37 -12 71 -12q47 0 80 18q32 17 37 42q37 107 69 110q60 1 63 -52q0 -76 47 -76q7 0 14 5q60 33 76 118
q11 59 65 59q46 0 40 -53z" />
    <glyph glyph-name="uniFEB6" unicode="&#x634;" horiz-adv-x="1903" arabic-form="final" 
d="M1823 221q-6 -31 -1.5 -49.5t17.5 -28.5t32.5 -13t40.5 -3l-1 -127q-40 0 -46 1q-81 6 -103 45q-24 -32 -61 -50.5t-84 -18.5q-59 0 -96 44q-43 -87 -124.5 -104t-129.5 -6q-16 -361 -217 -597q-202 -238 -529 -228q-181 9 -284.5 125t-79.5 317t114 338q34 53 86 37
t22 -101q-59 -111 -80 -210.5t-3.5 -178t75.5 -130t154 -64.5q149 -11 277.5 54.5t228.5 218.5q107 190 111 406q0 57 -3.5 88t-3.5 33q0 53 42 63t79 -21q38 -11 71 -11q46 0 81 17q31 18 35 42q39 109 71 110q59 2 60 -53q1 -74 47 -74q10 0 16 5q60 33 77 119
q10 58 59.5 57t49.5 -52zM1541 716q-20 -55 -75 -55q-12 0 -23 4q-55 19 -55 78q0 10 6 21q15 52 74 52q14 0 25 -3q54 -18 54 -75q0 -13 -6 -22zM1443 519q-16 -51 -75 -51q-31 0 -52.5 20.5t-21.5 56.5q0 10 3 23q14 53 71 53q14 0 27 -6q53 -20 53 -70q0 -14 -5 -26z
M1652 525q-20 -52 -75 -52q-33 0 -54.5 21t-21.5 53q0 13 4 24q15 54 72 54q11 0 22 -4q55 -20 55 -74q0 -12 -2 -22z" />
    <glyph glyph-name="uniFEB7" unicode="&#x634;" horiz-adv-x="864" arabic-form="initial" 
d="M829 338q-24 -109 -91 -167.5t-134 -58.5q-41 0 -79 15q-48 -42 -92.5 -56.5t-99.5 -16.5t-100 29q-40 -39 -112.5 -61.5t-120.5 -21.5h-3v127q60 -1 101.5 21t57.5 50q33 87 63 90q49 6 52 -71q1 -40 57 -40q39 0 74 21q40 23 47 56q23 69 64 76q41 6 43 -47
q4 -47 36 -52.5t54 10.5q41 21 75 122q20 53 63 53t45 -60v-18zM615 967q-19 -56 -75 -56q-11 0 -24 5q-55 19 -55 77q0 10 5 22q15 54 74 54q14 0 26 -3q53 -18 53 -75q0 -15 -4 -24zM724 777q-18 -54 -73 -54q-32 0 -55 23t-23 54q0 12 3 23q20 54 71 54q15 0 30 -5
q53 -19 53 -72q0 -13 -6 -23zM516 771q-17 -51 -72 -51q-31 0 -54 22t-23 53q0 10 2 27q19 50 73 50q13 0 25 -4q52 -19 52 -73q0 -12 -3 -24z" />
    <glyph glyph-name="uniFEB8" unicode="&#x634;" horiz-adv-x="905" arabic-form="medial" 
d="M912 0h-9q-111 -2 -145 45q-62 -57 -159.5 -57t-128.5 51q-64 -52 -151.5 -52t-152.5 58q-27 -20 -72 -32.5t-100 -12.5v127h12q54 0 88 23q24 12 43 66q10 38 58 38t48 -38q-5 -28 11 -54q20 -35 56 -38q89 -2 120 84q14 53 63 50t48 -42q-5 -34 14 -61q21 -31 60 -31
q41 3 59.5 31t32.5 89q26 48 69.5 37.5t47.5 -62.5q-4 -27 1.5 -45t18.5 -27.5t30 -14.5t38 -5v-127zM546 811q-19 -52 -76 -52q-12 0 -22 5q-56 15 -56 74q0 11 5 21q15 57 73 57q14 0 27 -5q52 -17 52 -74q0 -12 -3 -26zM654 621q-17 -53 -73 -53q-32 0 -53 23t-21 56
q0 11 2 21q15 56 72 56q12 0 23 -4q56 -20 56 -73q0 -13 -6 -26zM448 617q-18 -51 -76 -51q-29 0 -52.5 22.5t-23.5 52.5q0 11 6 24q15 55 70 55q13 0 26 -4q53 -22 53 -75q0 -13 -3 -24z" />
    <glyph glyph-name="uni0635" unicode="&#x635;" horiz-adv-x="1972" arabic-form="isolated" 
d="M1161 223q18 -7 61 -22t108 -13q180 348 410 358q79 3 132 -44.5t53 -119.5q0 -22 -8 -44q-31 -149 -211 -226q-164 -66 -363 -66q-65 0 -123 8l-2 -4q-14 -359 -217 -595t-529 -228q-182 9 -285.5 126t-79 317.5t114.5 336.5q33 52 85 35.5t23 -98.5
q-60 -111 -81 -210.5t-3 -178.5t75.5 -130.5t153.5 -64.5q150 -10 278.5 55t228.5 219q107 189 111 403q0 61 -8 119q-3 49 25.5 62.5t50.5 4.5zM1740 416q-127 -1 -230 -149l-53 -83q85 2 200 57q59 20 97 53q45 42 45 72q0 37 -59 50z" />
    <glyph glyph-name="uniFEBA" unicode="&#x635;" horiz-adv-x="1972" arabic-form="final" 
d="M1167 223q34 -17 65.5 -27t94.5 -8q182 348 412 358q79 3 132 -44.5t53 -119.5q0 -22 -7 -44q-20 -90 -96 -155q33 -57 159 -56v-127h-48q-60 0 -121 30q-59 28 -97 86q-6 -3 -10 -4q-159 -56 -293 -60.5t-193 6.5l-1 -6q-16 -361 -218 -597t-530 -228q-180 9 -283.5 126
t-79 317.5t112.5 336.5q35 52 87.5 35.5t20.5 -98.5q-59 -111 -79.5 -210.5t-2.5 -178.5t75 -130.5t154 -64.5q149 -10 277 55t227 219q110 189 114 403q0 61 -10 119q-1 49 31 63.5t54 3.5zM1739 416q-128 -1 -231 -149l-53 -83q86 2 202 57q58 20 96 53q45 42 45 72
q0 37 -59 50z" />
    <glyph glyph-name="uniFEBB" unicode="&#x635;" horiz-adv-x="971" arabic-form="initial" 
d="M366 -3q-145 1 -185 88q-64 -85 -160 -85h-28v127h12q76 2 126 102q29 63 82 65q45 -2 47 -63q3 -104 119 -105q163 335 390 343q74 4 123 -49q41 -49 41 -116q0 -49 -21 -88q-117 -221 -509 -221q-17 0 -37 2zM826 304q0 50 -74 50q-64 0 -139 -78q-62 -66 -110 -157
q97 -3 228 67q95 46 95 118z" />
    <glyph glyph-name="uniFEBC" unicode="&#x635;" horiz-adv-x="991" arabic-form="medial" 
d="M998 0h-20q-154 0 -198 64q-124 -64 -260.5 -71.5t-156.5 -4.5q-145 0 -185 97q-66 -85 -162 -85h-26v127h11q78 2 124 102q33 63 85 65q44 -2 46 -63q3 -125 128 -112q165 338 380 343q80 -1 123 -48.5t43 -121.5q0 -37 -10 -73q-7 -15 -46 -64q36 -28 104 -28h21z
M819 294q0 55 -72 55q-61 0 -138 -78q-60 -67 -108 -159q95 -3 206.5 55t111.5 127z" />
    <glyph glyph-name="uni0636" unicode="&#x636;" horiz-adv-x="1951" arabic-form="isolated" 
d="M1531 769q-21 -53 -73 -53q-14 0 -22 4q-55 17 -55 75q0 14 4 25q16 51 73 51q13 0 25 -6q53 -17 53 -70q0 -13 -5 -26zM1160 223q18 -7 61.5 -22t106.5 -13q182 348 411 358q80 3 133 -44.5t53 -119.5q0 -22 -8 -44q-32 -149 -212 -226q-164 -66 -363 -66q-64 0 -123 8
l-1 -4q-17 -359 -219 -595t-529 -228q-180 9 -283.5 126t-79 317.5t113.5 336.5q33 52 85.5 35.5t21.5 -98.5q-59 -111 -79.5 -210.5t-2.5 -178.5t75.5 -130.5t153.5 -64.5q149 -10 277.5 55t227.5 219q107 189 113 403q0 61 -11 119q0 49 28.5 62.5t49.5 4.5zM1739 416
q-126 -1 -230 -149l-53 -83q85 2 202 57q58 20 95 53q46 42 46 72q0 37 -60 50z" />
    <glyph glyph-name="uniFEBE" unicode="&#x636;" horiz-adv-x="1972" arabic-form="final" 
d="M1539 724q-21 -53 -75 -53q-9 0 -19 2q-56 17 -56 78q0 11 3 20q18 55 72 55q15 0 27 -4q53 -18 53 -71q0 -13 -5 -27zM1168 223q36 -17 66.5 -27t95.5 -8q180 348 410 358q79 3 132 -44.5t53 -119.5q0 -22 -8 -44q-19 -90 -96 -155q37 -57 160 -56v-127h-47
q-61 0 -123 30q-58 28 -96 86q-6 -3 -9 -4q-159 -56 -293.5 -60.5t-192.5 6.5l-2 -6q-14 -361 -217 -597t-529 -228q-182 9 -285.5 126t-79 317.5t114.5 336.5q33 52 85 35.5t23 -98.5q-60 -111 -81 -210.5t-3 -178.5t75.5 -130.5t153.5 -64.5q150 -10 278.5 55t228.5 219
q107 189 111 403q0 61 -8 119q-3 49 29 63.5t54 3.5zM1740 416q-127 -1 -230 -149l-53 -83q85 2 200 57q59 20 97 53q45 42 45 72q0 37 -59 50z" />
    <glyph glyph-name="uniFEBF" unicode="&#x636;" horiz-adv-x="966" arabic-form="initial" 
d="M365 -5q-145 3 -186 90q-64 -85 -161 -85h-27v127h11q80 2 127 102q27 63 83 65q43 -2 47 -63q2 -104 119 -105q163 335 390 343q74 4 121 -49q43 -49 43 -116q0 -49 -21 -88q-117 -221 -510 -221h-36zM825 304q0 50 -76 50q-65 0 -137 -78q-62 -66 -109 -157
q94 -3 224 67q98 46 98 118zM596 700q-12 0 -22 5q-51 19 -51 74q0 30 23.5 49.5t49.5 19.5q16 0 29 -5q48 -20 48 -74q0 -25 -24 -47t-53 -22z" />
    <glyph glyph-name="uniFEC0" unicode="&#x636;" horiz-adv-x="996" arabic-form="medial" 
d="M1003 0h-20q-154 0 -198 64q-124 -64 -261 -71.5t-156 -4.5q-145 0 -185 97q-66 -85 -162 -85h-27v127h12q78 2 124 102q32 63 85 65q44 -2 46 -63q3 -125 128 -112q165 338 380 343q80 -1 123 -48.5t43 -121.5q0 -37 -10 -73q-7 -15 -46 -64q33 -28 104 -28h21zM824 294
q0 55 -72 55q-61 0 -138 -78q-61 -67 -109 -159q95 -3 207 55t112 127zM655 677q-11 0 -22 3q-52 20 -52 78q0 26 26 46.5t55 20.5t50.5 -23t21.5 -55q0 -27 -26.5 -48.5t-52.5 -21.5z" />
    <glyph glyph-name="uni0637" unicode="&#x637;" horiz-adv-x="978" arabic-form="isolated" 
d="M237 1q-63 -2 -86 2q-55 9 -55 53q0 46 61 54l97 9q455 44 568 232q11 20 11 37q0 32 -42 32q-17 0 -32 -4q-90 -28 -206 -128q-58 -54 -116 -106q-11 -10 -28 -10q-67 0 -67 47q0 13 13 29q40 35 70 68q73 87 91 149q22 97 25 236v241q1 92 12 159q7 40 44 40
q29 0 46 -18q19 -22 19 -49l-29 -574q81 42 151 42q71 0 114 -41.5t43 -106.5q0 -132 -160 -239q-194 -132 -544 -154z" />
    <glyph glyph-name="uniFEC2" unicode="&#x637;" horiz-adv-x="883" arabic-form="final" 
d="M704 256q23 22 23 42q0 58 -95 62q-50 -4 -98 -24q-80 -38 -166 -100l-86 -70q-13 -9 -27 -9q-51 0 -51 55q0 29 27 49q80 60 153 116q12 7 9 293q-12 315 0 376q7 40 47 40q23 0 41 -17q20 -22 18 -49l-10 -585q98 45 176 40q88 0 141 -54q46 -45 46 -117
q0 -105 -92 -158q17 -17 114 -19h16v-127h-19q-120 1 -233 66q-64 -29 -177 -47t-315 -19q-29 0 -51.5 19.5t-27 42.5t13 42.5t65.5 22.5q431 0 558 129z" />
    <glyph glyph-name="uniFEC3" unicode="&#x637;" horiz-adv-x="649" arabic-form="initial" 
d="M-5 127h23q227 0 359 71q99 53 99 113q0 51 -59 51q-12 0 -26 -6q-72 -12 -169 -89q-49 -46 -99 -90q-6 -6 -17 -6q-19 0 -35 13.5t-16 34.5q0 17 20 37q38 42 134 131q13 74 13 192q0 35 5 195.5t6 243.5q9 49 58.5 49t47.5 -65l-24 -543q56 20 105 20q78 0 130 -45.5
t52 -110.5q2 -107 -114 -193q-162 -104 -441 -127q-36 -3 -52 -3v127z" />
    <glyph glyph-name="uniFEC4" unicode="&#x637;" horiz-adv-x="728" arabic-form="medial" 
d="M549 256q25 22 25 42q0 58 -97 62q-48 -4 -97 -24q-81 -38 -167 -100l-87 -70q-12 -9 -26 -9q-51 0 -51 55q0 29 27 49q82 60 153 116q13 7 8 293q-10 315 3 376q5 40 44 40q24 0 41 -17q21 -22 19 -49l-10 -585q98 45 176 40q88 0 141 -54q45 -45 45 -117
q0 -105 -91 -158q16 -17 114 -19h16v-127h-19q-122 1 -233 66q-65 -29 -177.5 -47t-314.5 -19v127q431 0 558 129z" />
    <glyph glyph-name="uni0638" unicode="&#x638;" horiz-adv-x="975" arabic-form="isolated" 
d="M236 1q-62 -2 -86 2q-54 9 -54 53q0 46 59 54l99 9q455 44 567 232q13 20 13 37q0 32 -45 32q-13 0 -30 -4q-89 -28 -205 -128q-59 -54 -116 -106q-12 -10 -29 -10q-66 0 -66 47q0 13 12 29q39 35 71 68q73 87 88 149q24 97 28 236v241q2 92 12 159q6 40 45 40
q26 0 42 -18q19 -22 19 -49l-27 -574q82 42 152 42q71 0 113.5 -41.5t42.5 -106.5q0 -132 -159 -239q-194 -132 -546 -154zM924 848q-23 -53 -74 -53q-12 0 -20 3q-53 24 -53 77q0 29 23.5 48.5t54.5 19.5q12 0 25 -5q50 -17 50 -70q0 -11 -6 -20z" />
    <glyph glyph-name="uniFEC6" unicode="&#x638;" horiz-adv-x="883" arabic-form="final" 
d="M763 766q-10 0 -21 3q-52 26 -52 77q0 30 25 49t55 19q13 0 23 -3q50 -19 50 -73q0 -27 -25.5 -49.5t-54.5 -22.5zM704 256q23 22 23 42q0 58 -95 62q-50 -4 -98 -24q-80 -38 -166 -100l-86 -70q-13 -9 -27 -9q-51 0 -51 55q0 29 27 49q80 60 153 116q12 7 9 293
q-12 315 0 376q7 40 47 40q23 0 41 -17q20 -22 18 -49l-10 -585q98 45 176 40q88 0 141 -54q46 -45 46 -117q0 -105 -92 -158q17 -17 114 -19h16v-127h-19q-120 1 -233 66q-64 -29 -177 -47t-315 -19q-29 0 -51.5 19.5t-27 42.5t13 42.5t65.5 22.5q431 0 558 129z" />
    <glyph glyph-name="uniFEC7" unicode="&#x638;" horiz-adv-x="648" arabic-form="initial" 
d="M-6 127h23q227 0 359 71q99 53 99 113q0 51 -59 51q-12 0 -26 -6q-76 -12 -170 -89q-48 -46 -98 -90q-7 -6 -17 -6q-19 0 -35 13.5t-16 34.5q0 17 21 37q37 42 133 131q12 74 12 192q0 35 5.5 195.5t6.5 243.5q8 49 57.5 49t48.5 -65l-24 -543q56 20 105 20
q78 0 130 -45.5t52 -110.5q2 -107 -114 -193q-162 -104 -441 -127q-36 -3 -52 -3v127zM602 829q-21 -52 -77 -52q-11 0 -21 1q-50 24 -50 75q0 31 27 52q20 18 49 18q15 0 26 -2q48 -20 48 -73q0 -11 -2 -19z" />
    <glyph glyph-name="uniFEC8" unicode="&#x638;" horiz-adv-x="728" arabic-form="medial" 
d="M549 256q25 22 25 42q0 58 -97 62q-48 -4 -97 -24q-81 -38 -167 -100l-87 -70q-12 -9 -26 -9q-51 0 -51 55q0 29 27 49q82 60 153 116q13 7 8 293q-10 315 3 376q5 40 44 40q24 0 41 -17q21 -22 19 -49l-10 -585q98 45 176 40q88 0 141 -54q45 -45 45 -117
q0 -105 -91 -158q16 -17 114 -19h16v-127h-19q-122 1 -233 66q-65 -29 -177.5 -47t-314.5 -19v127q431 0 558 129zM564 771q-10 0 -21 5q-50 23 -50 77q0 26 23 48q25 20 54 20q13 0 24 -7q53 -15 53 -71q0 -28 -26.5 -50t-56.5 -22z" />
    <glyph glyph-name="uni0639" unicode="&#x639;" horiz-adv-x="936" arabic-form="isolated" 
d="M753 298q59 9 65 -36t-38 -72q-53 -17 -165 -62t-248.5 -159t-158.5 -286q-19 -137 60 -232q74 -91 217 -113q158 -17 295 96q22 23 46.5 36t45 13.5t32.5 -13t8 -45.5q-11 -55 -145.5 -141t-324.5 -70q-135 24 -238 113q-137 142 -115 360q31 254 310 455
q-46 17 -74.5 63.5t-20.5 105.5q7 109 86.5 169.5t161.5 50.5q107 -11 121 -115q3 -29 -8.5 -39t-39.5 -3q-41 41 -85 43.5t-80.5 -27.5t-38.5 -67q-5 -45 40 -75.5t97 -22.5q49 23 95 41.5t100 31.5z" />
    <glyph glyph-name="uniFECA" unicode="&#x639;" horiz-adv-x="816" arabic-form="final" 
d="M472 216q-18 16 -99 20q-31 15 -32 49q20 109 231 130q59 0 117 -27q72 -38 72 -98q0 -36 -31.5 -64t-60.5 -38q36 -66 142 -61h12v-127h-38q-162 0 -238 122q-107 -48 -213 -155.5t-125.5 -252t57 -241.5t243 -110t276.5 116q20 24 45 38t45 16.5t34 -10t13 -44.5
q-16 -80 -146 -167t-305.5 -74t-287.5 117t-111 321q33 343 400 540z" />
    <glyph glyph-name="uniFECB" unicode="&#x639;" horiz-adv-x="570" arabic-form="initial" 
d="M532 199q-29 -49 -176.5 -125t-359.5 -74v127q84 0 114 12q-54 32 -67 139q-3 98 68.5 175.5t201.5 73.5q91 -5 123 -54q7 -12 7 -30q-7 -55 -72 -46q-23 2 -50 2.5t-33 0.5q-66 -13 -94 -52t-22 -81q2 -42 37 -67t77 -23q12 0 27 5q34 7 154 93q32 12 55 -9.5t10 -66.5z
" />
    <glyph glyph-name="uniFECC" unicode="&#x639;" horiz-adv-x="504" arabic-form="medial" 
d="M508 127v-127h-44q-73 3 -125.5 29.5t-74.5 48.5q-109 -71 -259 -78h-11v127h16q43 0 99.5 17.5t78.5 41.5q0 10 -33 15q-39 7 -56 18q-28 22 -24 69q38 74 147 87t175 -13q65 -33 65 -98q0 -20 -13 -42.5t-33 -36.5t-39 -23q4 -7 16.5 -13.5t29 -12t34.5 -8t34 -1.5h17z
" />
    <glyph glyph-name="uni063A" unicode="&#x63a;" horiz-adv-x="939" arabic-form="isolated" 
d="M616 826q-19 -50 -75 -50q-11 0 -23 2q-55 17 -55 75q0 12 2 23q17 52 76 52q11 0 26 -3q53 -20 53 -72q0 -15 -4 -27zM752 298q59 9 66 -36t-40 -72q-51 -17 -164 -62t-249.5 -159t-157.5 -286q-20 -137 60 -232q74 -91 215 -113q159 -17 296 96q22 23 47.5 36t46 13.5
t32 -13t7.5 -45.5q-12 -55 -146 -141t-325 -70q-136 24 -238 113q-135 142 -114 360q30 254 309 455q-46 17 -74.5 63.5t-21.5 105.5q10 109 88.5 169.5t160.5 50.5q107 -11 123 -115q2 -29 -10 -39t-40 -3q-40 41 -83.5 43.5t-80.5 -27.5t-40 -67q-2 -45 41 -75.5t96 -22.5
q51 23 97 41.5t99 31.5z" />
    <glyph glyph-name="uniFECE" unicode="&#x63a;" horiz-adv-x="816" arabic-form="final" 
d="M660 696q-20 -55 -76 -55q-11 0 -23 6q-54 14 -54 73q0 14 3 24q17 54 74 54q13 0 26 -6q54 -19 54 -72q0 -13 -4 -24zM472 216q-18 16 -99 20q-31 15 -32 49q20 109 231 130q59 0 117 -27q72 -38 72 -98q0 -36 -31.5 -64t-60.5 -38q36 -66 142 -61h12v-127h-38
q-162 0 -238 122q-107 -48 -213 -155.5t-125.5 -252t57 -241.5t243 -110t276.5 116q20 24 45 38t45 16.5t34 -10t13 -44.5q-16 -80 -146 -167t-305.5 -74t-287.5 117t-111 321q33 343 400 540z" />
    <glyph glyph-name="uniFECF" unicode="&#x63a;" horiz-adv-x="569" arabic-form="initial" 
d="M532 199q-30 -49 -177.5 -125t-359.5 -74v127q86 0 117 12q-56 32 -70 139q-2 98 70 175.5t200 73.5q91 -5 123 -54q7 -12 7 -30q-7 -55 -71 -46q-22 2 -50 2.5t-34 0.5q-63 -13 -92 -52t-24 -81q2 -42 37 -67t78 -23q11 0 26 5q35 7 154 93q32 12 55.5 -9.5t10.5 -66.5z
M379 798q-22 -53 -78 -53q-10 0 -21 2q-55 17 -55 75q0 14 3 23q17 54 73 54q12 0 26 -4q55 -19 55 -73q0 -11 -3 -24z" />
    <glyph glyph-name="uniFED0" unicode="&#x63a;" horiz-adv-x="495" arabic-form="medial" 
d="M507 127v-127h-45q-73 3 -125 29.5t-75 48.5q-108 -71 -258 -78h-11v127h15q44 0 100.5 17.5t77.5 41.5q0 10 -32 15q-41 7 -57 18q-29 22 -23 69q38 74 146.5 87t174.5 -13q66 -33 66 -98q0 -20 -13.5 -42.5t-34.5 -36.5t-37 -23q5 -7 17 -13.5t28.5 -12t34.5 -8
t34 -1.5h17zM377 716q-22 -55 -78 -55q-10 0 -21 4q-54 16 -54 74q0 14 3 25q17 52 72 52q13 0 29 -4q53 -20 53 -73q0 -12 -4 -23z" />
    <glyph glyph-name="uni0641" unicode="&#x641;" horiz-adv-x="1893" arabic-form="isolated" 
d="M1853 475q0 -474 -1093 -484q-48 -3 -173 7q-148 5 -192 14q-312 67 -305 299q0 109 56 118q27 3 44 -30q18 -29 19 -69q3 -105 114 -148q126 -58 441 -60q300 -4 543 40q403 74 403 259q0 38 -33 38q-16 0 -56 -16q-115 0 -115 106q0 68 52 125q52 63 126 64
q43 0 98 -67q71 -86 71 -196zM1694 988q-21 -53 -77 -53q-12 0 -19 3q-56 17 -56 75q0 13 6 23q15 54 69 54q14 0 27 -4q51 -19 51 -73q0 -12 -1 -25z" />
    <glyph glyph-name="uniFED2" unicode="&#x641;" horiz-adv-x="1888" arabic-form="final" 
d="M1896 127v-127h-48q-65 0 -122 26t-78 53q-175 -62 -425 -80q-118 -11 -436 -12q-45 0 -175 8q-149 8 -195 17q-310 67 -303 299q0 104 63 110q53 9 55 -91q5 -105 123 -155q129 -57 444 -63q562 -7 738 77q-52 56 -52 127q0 87 63.5 153t150.5 66q71 -4 119 -56
q41 -52 44 -129q0 -125 -105 -195q28 -28 119 -28h20zM1754 338q0 82 -66 88q-35 0 -64 -33t-29 -77q2 -67 58 -93q90 28 101 115zM1723 815q-20 -51 -75 -51q-11 0 -20 3q-56 15 -56 78q0 8 5 20q15 52 71 52q16 0 23 -1q56 -21 56 -74q0 -13 -4 -27z" />
    <glyph glyph-name="uniFED3" unicode="&#x641;" horiz-adv-x="397" arabic-form="initial" 
d="M373 329q0 -146 -79 -231q-86 -98 -267 -98h-44v127h29q227 0 235 129q5 53 -37 53q-15 0 -36 -9q-9 -2 -17 -6q-16 -2 -28 -2q-99 0 -99 112q0 69 44 132.5t99 68.5q63 9 126 -69q74 -84 74 -207zM254 826q-20 -50 -76 -50q-12 0 -21 2q-56 17 -56 75q0 12 3 23
q17 52 74 52q10 0 26 -3q53 -20 53 -72q0 -15 -3 -27z" />
    <glyph glyph-name="uniFED4" unicode="&#x641;" horiz-adv-x="484" arabic-form="medial" 
d="M119 143q-51 43 -51.5 127t44.5 147q63 75 149 73q77 0 124 -53q44 -50 46 -122q-2 -107 -81 -172q40 -16 122 -16h19v-127h-45q-89 0 -140.5 19.5t-76.5 36.5q-84 -56 -206 -56h-29v127h24q63 0 101 16zM319 305q-5 77 -70 77q-36 0 -58 -30.5t-22 -68.5q5 -42 24 -61
t35 -29q82 36 91 112zM305 790q-20 -56 -77 -56q-32 0 -55 24.5t-23 54.5q0 12 6 23q18 54 72 54q13 0 25 -2q54 -20 54 -76q0 -13 -2 -22z" />
    <glyph glyph-name="uni0642" unicode="&#x642;" horiz-adv-x="1170" arabic-form="isolated" 
d="M1124 248q0 -314 -218 -535q-205 -205 -450 -208q-178 -1 -280 123q-75 106 -73 260q3 67 24 171q35 150 87 157q59 7 61 -61q-11 -46 -32 -133t-21 -117q0 -255 214 -276h28q191 0 360.5 179.5t169.5 379.5q-1 95 -53 95q-4 0 -28.5 -3.5t-35.5 -3.5q-59 0 -94 75
q-9 19 -9 48q0 70 38 127q47 66 119 63q75 0 128 -80q65 -92 65 -261zM1029 942q-20 -54 -76 -54q-29 0 -51.5 23.5t-22.5 52.5q0 14 3 26q17 53 71 53q13 0 28 -6q52 -15 52 -73q0 -9 -4 -22zM821 938q-16 -54 -73 -54q-32 0 -54.5 23.5t-22.5 55.5q0 12 4 22q18 52 73 52
q13 0 25 -3q53 -19 53 -71q0 -14 -5 -25z" />
    <glyph glyph-name="uniFED6" unicode="&#x642;" horiz-adv-x="1067" arabic-form="final" 
d="M689 61q-11 23 -11 61q0 77 40.5 151t111.5 76q94 2 137 -71q29 -49 52 -151h60v-127h-56q-9 -293 -184 -464.5t-401 -176.5q-188 11 -291 126q-76 105 -70 257q0 64 29 180.5t78 138.5q60 0 60 -53q-3 -27 -26.5 -123.5t-23.5 -129.5q0 -264 233 -270q156 0 314 132
q161 149 172 334q0 19 -1 33t-4 16q-31 -2 -64 2t-64 12.5t-55.5 20t-35.5 26.5zM944 663q-17 -57 -73 -57q-28 0 -51.5 23t-23.5 55q0 12 3 26q17 54 71 54q14 0 27 -6q56 -18 56 -74q0 -11 -9 -21zM749 663q-17 -57 -74 -57q-29 0 -52.5 23t-23.5 55q0 12 4 26
q16 54 70 54q17 0 29 -6q54 -18 54 -74q0 -11 -7 -21z" />
    <glyph glyph-name="uniFED7" unicode="&#x642;" horiz-adv-x="447" arabic-form="initial" 
d="M386 309q2 -309 -353 -309h-40v127h25q236 0 244 109q-2 46 -44 47q-14 0 -34.5 -10.5t-40.5 -8.5q-99 7 -99 120q0 68 43 131.5t98 68.5q79 5 137.5 -74.5t63.5 -200.5zM194 875q-18 -53 -76 -53q-29 0 -51.5 23t-22.5 54q0 12 5 22q15 55 69 55q14 0 25 -7
q53 -15 53 -70q0 -15 -2 -24zM401 879q-20 -53 -77 -53q-29 0 -51 23t-22 54q0 11 3 24q16 53 70 53q15 0 26 -4q55 -20 55 -73q0 -13 -4 -24z" />
    <glyph glyph-name="uniFED8" unicode="&#x642;" horiz-adv-x="480" arabic-form="medial" 
d="M425 845q-20 -54 -76 -54q-32 0 -53.5 23t-21.5 55v23q19 55 75 55q12 0 24 -5q54 -19 54 -73q0 -11 -2 -24zM215 842q-18 -52 -73 -52q-32 0 -55 22.5t-23 52.5q0 12 1 23q21 54 77 54q12 0 27 -4q51 -21 51 -73q0 -12 -5 -23zM115 143q-51 43 -52 127t45 147
q62 75 149 73q76 0 124 -53q44 -50 46 -122q-2 -107 -84 -172q43 -16 125 -16h19v-127h-45q-89 0 -140.5 19.5t-77.5 36.5q-83 -56 -205 -56h-30v127h23q65 0 103 16zM315 305q-5 77 -70 77q-36 0 -58 -30.5t-22 -68.5q4 -42 22 -61t37 -29q82 36 91 112z" />
    <glyph glyph-name="uni0643" unicode="&#x643;" horiz-adv-x="1745" arabic-form="isolated" 
d="M1401 508q-8 -124 -28 -197q-26 -90 -85 -162q-86 -106 -316 -170q-212 -58 -384 -58q-195 0 -319 40q-176 58 -176 258v32q-9 96 66 100q42 3 53 -53q4 -17 4 -82q0 -97 111 -137q77 -18 219 -21q72 -2 201 15t219 40q209 69 265 191q46 105 46 281q4 56 5 170.5
t1 198.5q11 57 67 55.5t53 -55.5q1 -78 2 -147t-0.5 -155t-3.5 -144zM2126 1755q16 -25 16 -42q0 -36 -59 -84q-542 -443 -673 -562q-28 -27 -54 -27q-15 0 -29 8q-32 25 -32 55q0 16 9 25q125 120 352 310.5t346 282.5q66 47 92 47q18 0 32 -13z" />
    <glyph glyph-name="uniFB8F" unicode="&#x6a9;" horiz-adv-x="1513" arabic-form="final" 
d="M1521 0h-26q-70 0 -135.5 56.5t-69.5 164.5q-106 -116 -314 -181q-204 -63 -428 -63q-161 0 -294 46q-180 64 -180 260v35q-11 91 64 97q41 0 53 -53q2 -20 2 -86q0 -91 97 -132t229 -39q210 0 425 70q235 74 286 187q43 106 59 249q14 112 28 211q9 75 55 75
q27 0 45.5 -17.5t15.5 -41.5q-23 -227 -40 -345q-7 -56 -7 -109q0 -257 114 -257h21v-127zM2155 1625q20 -22 20 -42q0 -34 -59 -80q-542 -446 -674 -566q-29 -26 -54 -26q-15 0 -29 10q-33 22 -33 55q0 14 10 24q126 119 353 310.5t347 281.5q66 48 90 48q18 0 29 -15z" />
    <glyph glyph-name="uniFB90" unicode="&#x6a9;" horiz-adv-x="665" arabic-form="initial" 
d="M1048 1625q19 -22 19 -42q0 -34 -61 -80q-541 -446 -675 -566q-27 -26 -53 -26q-16 0 -28 10q-33 22 -33 55q0 14 8 24q128 119 354 310.5t348 281.5q64 48 89 48q18 0 32 -15zM283 795q0 -108 -1 -322q-9 -248 -50 -328q-80 -142 -228 -145h-17v127h13q60 0 92 30.5
t47 74.5q38 128 30 347q-1 137 3 223q10 99 68 99q51 0 43 -106z" />
    <glyph glyph-name="uniFB91" unicode="&#x6a9;" horiz-adv-x="370" arabic-form="medial" 
d="M382 0h-37q-102 0 -154 79q-66 -79 -186 -79h-17v127h12q124 0 158 207q13 69 46 470q8 95 58 95q34 0 49 -35q8 -22 5 -62l-13 -240q-14 -199 -40 -328q-4 -30 13 -62q27 -45 82 -45h24v-127zM1043 1634q16 -26 16 -44q0 -34 -58 -81q-541 -445 -675 -566
q-26 -26 -54 -26q-15 0 -27 10q-31 25 -31 56q0 13 6 24q128 118 354 309.5t348 280.5q63 50 89 50q18 0 32 -13z" />
    <glyph glyph-name="uni06AF" unicode="&#x6af;" horiz-adv-x="1745" arabic-form="isolated" 
d="M2126 1746q16 -24 16 -43q0 -34 -59 -80q-542 -447 -673 -566q-28 -26 -54 -26q-15 0 -29 9q-32 23 -32 55q0 14 9 24q125 120 352 309.5t346 282.5q66 48 92 48q18 0 32 -13zM1943 1735q-75 -72 -368 -298q-13 -12 -27 -12q-36 1 -36 35q1 16 20 32q134 104 363 295
q22 16 37 16q31 -1 31 -30q-1 -21 -20 -38zM1401 508q-8 -124 -28 -197q-26 -90 -85 -162q-86 -106 -316 -170q-212 -58 -384 -58q-195 0 -319 40q-176 58 -176 258v32q-9 96 66 100q42 3 53 -53q4 -17 4 -82q0 -97 111 -137q77 -18 219 -21q72 -2 201 15t219 40
q209 69 265 191q46 105 46 281q4 56 5 170.5t1 198.5q11 57 67 55.5t53 -55.5q1 -78 2 -147t-0.5 -155t-3.5 -144z" />
    <glyph glyph-name="uniFB93" unicode="&#x6af;" horiz-adv-x="1550" arabic-form="final" 
d="M1562 0h-24q-106 -1 -175 56t-73 165q-107 -116 -314 -181q-205 -63 -428 -63q-162 0 -297 46q-177 64 -177 260v35q-10 91 62 97q42 0 54 -53q3 -20 3 -86q0 -91 96.5 -132t229.5 -39q208 0 424 70q236 74 286 187q44 106 58 249q14 112 30 211q9 75 55 75
q25 0 44.5 -17.5t15.5 -41.5q-22 -227 -40 -345q-7 -56 -7 -109q0 -257 160 -257h17v-127zM2145 1625q19 -22 19 -42q0 -34 -61 -80q-541 -446 -672 -566q-28 -26 -54 -26q-16 0 -29 10q-31 22 -31 55q0 14 9 24q124 119 350 310.5t348 281.5q63 48 91 48q17 0 30 -15z
M1958 1608q-76 -71 -367 -300q-13 -10 -28 -10q-37 1 -37 35q0 17 22 32q133 106 360 293q24 17 40 17q30 0 30 -28q-1 -22 -20 -39z" />
    <glyph glyph-name="uniFB94" unicode="&#x6af;" horiz-adv-x="717" arabic-form="initial" 
d="M1087 1587q17 -23 17 -42q0 -36 -58 -82q-542 -443 -674 -564q-29 -27 -57 -27q-13 0 -27 10q-32 23 -32 55q0 15 10 24q125 119 352 310t345 281q66 49 92 49q18 0 32 -14zM907 1568q-77 -72 -367 -301q-12 -10 -27 -10q-38 2 -38 35q2 16 22 33q133 104 360 292
q23 18 40 18q30 0 30 -31q-1 -20 -20 -36zM280 795q0 -108 -1 -322q-6 -248 -50 -328q-80 -142 -227 -145h-17v127h13q58 0 91.5 30.5t47.5 74.5q38 128 30 347q0 137 3 223q11 99 67 99q51 0 43 -106z" />
    <glyph glyph-name="uniFB95" unicode="&#x6af;" horiz-adv-x="397" arabic-form="medial" 
d="M405 0h-12q-148 0 -202 79q-65 -79 -185 -79h-16v127h13q122 0 154 207q16 69 47 456q8 94 61 94q34 0 47 -34q8 -24 7 -60l-16 -228q-12 -199 -37 -328q-5 -30 12 -62q25 -45 110 -45h17v-127zM1043 1611q16 -24 16 -43q0 -36 -59 -82q-542 -443 -674 -564
q-27 -25 -54 -25q-15 0 -28 8q-32 23 -32 56q0 14 8 24q126 118 353 309.5t347 281.5q66 48 91 48q17 0 32 -13zM848 1587q-77 -72 -367 -300q-12 -12 -27 -12q-38 3 -38 36q1 17 21 33q134 105 362 293q23 18 39 18q28 -4 28 -31q-1 -20 -18 -37z" />
    <glyph glyph-name="uni0644" unicode="&#x644;" horiz-adv-x="1127" arabic-form="isolated" 
d="M306 140q-35 -97 -43 -174.5t3 -136.5t38 -100t63 -67.5t78.5 -40.5t83.5 -16q91 0 170 36t137 110t90 185t31 263q11 336 -14 749q-6 128 59 142q31 0 45.5 -23t18.5 -67q16 -283 18.5 -464.5t-0.5 -273.5t-15 -216q-28 -249 -164.5 -402t-356.5 -165
q-115 -1 -209.5 48.5t-147 145t-52.5 235t73 321.5q31 40 67.5 31t42 -40t-15.5 -80z" />
    <glyph glyph-name="uniFEDE" unicode="&#x644;" horiz-adv-x="1196" arabic-form="final" 
d="M306 140q-34 -97 -43 -174.5t2.5 -136.5t38.5 -100t63.5 -67.5t79 -40.5t82.5 -16q92 0 171 36t137 110t90 185t32 263q8 336 -14 749q-6 128 58 142q30 0 46 -23t17 -67q17 -283 20 -464.5t-3 -325.5q6 -38 42 -60.5t69 -22.5h9v-127h-15q-79 0 -119 46
q-29 -238 -165 -396.5t-355 -170.5q-77 -1 -145 21t-122.5 64.5t-90.5 106.5t-47.5 147t4.5 186t65 225q30 40 67 31t42 -40t-16 -80z" />
    <glyph glyph-name="uniFEDF" unicode="&#x644;" horiz-adv-x="334" arabic-form="initial" 
d="M289 928q0 -149 -1 -455q-8 -248 -51 -328q-79 -142 -227 -145h-15v127h11q60 0 93 30.5t48 74.5q35 128 29 347q-3 269 2 353q12 101 68 101q51 0 43 -105z" />
    <glyph glyph-name="uniFEE0" unicode="&#x644;" horiz-adv-x="429" arabic-form="medial" 
d="M438 0h-31q-70 3 -123 38.5t-67 79.5q-81 -118 -197 -118h-28v127h21q53 3 90.5 55t47.5 129q7 66 12 245q2 231 8 308q13 170 69 167q49 -1 46 -114q-4 -35 -7.5 -148.5t-3.5 -176.5q0 -56 0.5 -166t3.5 -149q7 -76 49.5 -113t88.5 -37h21v-127z" />
    <glyph glyph-name="uni0645" unicode="&#x645;" horiz-adv-x="675" arabic-form="isolated" 
d="M635 309q0 -80 -87 -104q-50 -12 -102 -21q-36 -12 -97 -44q-94 -53 -122 -186q-22 -86 -22 -237q0 -79 4 -199.5t4 -198.5q0 -87 -50 -89.5t-56 65.5q-6 249 -6 367q-18 481 212 589q40 20 97 37q-21 16 -21 46q0 36 25.5 66t56.5 30q164 0 164 -121z" />
    <glyph glyph-name="uniFEE2" unicode="&#x645;" horiz-adv-x="752" arabic-form="final" 
d="M295 157q13 6 52.5 16.5t63.5 14.5q18 51 58 51q11 0 24.5 -5t39.5 -35q30 -33 61 -48q52 -22 145 -24h20v-127h-8q-44 0 -72 13q6 -14 6 -28q-10 -64 -74.5 -70.5t-109 33.5t-79.5 82q-59 7 -105 -17q-79 -39 -100 -127q-19 -117 -24.5 -239.5t-6 -229t-2.5 -222.5
q-4 -53 -50 -59t-55 53q-2 40 -2 165.5t2 216.5q8 283 41 383q39 142 175 203z" />
    <glyph glyph-name="uniFEE3" unicode="&#x645;" horiz-adv-x="557" arabic-form="initial" 
d="M324 70q-27 15 -39 24q-54 25 -99.5 -6.5t-89 -60t-101.5 -27.5v127q54 0 99.5 36t85.5 47t76 11l13 -2q-5 48 16 76t74 28q104 -35 143 -118q4 -21 4 -40q6 -38 -28 -78.5t-87 -40.5q-39 6 -67 24z" />
    <glyph glyph-name="uniFEE4" unicode="&#x645;" horiz-adv-x="509" arabic-form="medial" 
d="M517 0h-9q-78 1 -144 28q0 -88 -67 -93q-84 5 -138 105q-34 -27 -82 -34t-83 -6v127h7q45 0 88.5 12.5t71.5 58.5q33 60 71 57q42 0 72 -34q22 -38 68 -66t136 -28h9v-127z" />
    <glyph glyph-name="uni0646" unicode="&#x646;" horiz-adv-x="1187" arabic-form="isolated" 
d="M1139 500q8 -71 8 -137q0 -355 -137 -580q-185 -281 -548 -266q-154 11 -253 117q-107 120 -107 311q0 111 40 241q46 144 97 144h9q39 -9 39 -59q0 -42 -28 -125q-41 -102 -41 -201q0 -122 64 -201q68 -79 186 -89q26 -4 55 -4q273 4 399 247q95 181 95 468
q0 58 -3.5 96t-3.5 46q0 60 37 73t61 -9.5t31 -71.5zM688 218q-21 -54 -75 -54q-16 0 -29 7q-55 17 -55 77q0 11 4 24q23 51 84 51h15q60 -23 60 -82q0 -12 -4 -23z" />
    <glyph glyph-name="uniFEE6" unicode="&#x646;" horiz-adv-x="1298" arabic-form="final" 
d="M1206 145q17 -14 45 -16t51 -2l-2 -127q-47 -1 -83 8q-17 -357 -219 -593.5t-529 -227.5q-181 9 -282 119t-89.5 290t99.5 315q34 54 87 37.5t24 -100.5q-52 -89 -68.5 -178t3.5 -163.5t76.5 -124.5t153.5 -63q151 -11 278 55t228 220q108 188 112 404q0 59 -10 118
q0 56 49 65t76 -36zM751 -118q-19 -53 -76 -53q-15 0 -28 6q-54 18 -54 78q0 11 3 25q23 50 84 50h15q61 -22 61 -81q0 -14 -5 -25z" />
    <glyph glyph-name="uniFEE7" unicode="&#x646;" horiz-adv-x="279" arabic-form="initial" 
d="M224 720q-19 -52 -77 -52q-31 0 -54 24t-23 53q0 13 4 24q18 56 73 56q13 0 26 -5q51 -18 51 -75v-25zM-4 127q78 11 110 85q12 39 17 126q2 69 56.5 67t54.5 -94q0 -106 -30 -171.5t-82 -99t-126 -40.5v127z" />
    <glyph glyph-name="uniFEE8" unicode="&#x646;" horiz-adv-x="417" arabic-form="medial" 
d="M289 655q-15 -50 -74 -50q-29 0 -52 22.5t-23 51.5q0 13 2 26q17 53 73 53q13 0 25 -4q53 -20 53 -73q0 -13 -4 -26zM208 244q11 50 58 50h17q42 -9 42 -71q2 -51 28.5 -73.5t67.5 -22.5v-127q-24 0 -49.5 3.5t-49 13t-43.5 29t-35 50.5q-59 -96 -252 -96v127
q83 -3 136.5 23t79.5 94z" />
    <glyph glyph-name="uni0648" unicode="&#x648;" horiz-adv-x="488" arabic-form="isolated" 
d="M448 164q0 -190 -75 -294t-149 -141q-81 -34 -119 -33q-57 0 -58 46t69 73q76 28 137.5 93.5t68.5 147.5q-50 -10 -67 -10q-96 0 -96 106q0 89 38 146q45 72 125 73q63 -1 99 -77q23 -60 27 -130z" />
    <glyph glyph-name="uniFEEE" unicode="&#x648;" horiz-adv-x="506" arabic-form="final" 
d="M433 8q-50 -148 -160.5 -245.5t-193.5 -97.5q-27 0 -42 11t-13 38.5t55 55.5q106 63 157.5 124t75.5 118q-132 9 -132 110q20 172 143 201q124 0 130 -191q31 -5 55 -5v-127q-47 0 -75 8z" />
    <glyph glyph-name="uni0647" unicode="&#x647;" horiz-adv-x="594" arabic-form="isolated" 
d="M529 255q4 -7 4 -16q0 -82 -51 -149q-65 -90 -203 -92q-56 -3 -91 41.5t-35 117.5q0 141 130 272q-23 20 -23 44q0 23 19.5 41.5t46.5 18.5q28 0 50 -20q45 -38 91 -105q56 -87 62 -153zM407 236q-6 35 -13 49q-12 26 -35 51q-84 -65 -84 -159q0 -44 20 -50q9 -5 16 -5
q38 0 71 49q29 41 25 65z" />
    <glyph glyph-name="uniFEEA" unicode="&#x647;" horiz-adv-x="553" arabic-form="final" 
d="M557 0h-5q-78 0 -126.5 65t-104.5 65q-72 -6 -140 -109q-17 -18 -43 -18q-23 0 -41.5 18t-18.5 43q0 15 9 32q112 168 249 167q76 0 135.5 -68t82.5 -68h3v-127z" />
    <glyph glyph-name="uniFEEB" unicode="&#x647;" horiz-adv-x="778" arabic-form="initial" 
d="M738 278q0 -55 -37 -106q-63 -69 -169 -69q-124 3 -170 27q-200 -130 -351 -130h-17v127h30q79 0 146 43q-39 26 -61 47q-42 42 -42 92q0 18 5 33q20 75 79 126t70 55q-19 18 -21 37.5t11.5 35t32.5 16.5t39 -17q20 -20 134 -69q141 -57 200 -94q107 -69 121 -140v-14z
M298 432q-39 -5 -93 -76q-17 -18 -17 -40q0 -31 37 -57l44 -29q111 29 115 121q0 52 -23.5 58.5t-62.5 22.5zM615 283q-4 26 -61 58q-54 29 -77 30q10 -15 10 -44q-7 -56 -44 -91q34 -24 96 -13t78 53q0 2 -2 7z" />
    <glyph glyph-name="uniFEEC" unicode="&#x647;" horiz-adv-x="508" arabic-form="medial" 
d="M516 0h-9q-52 0 -86 -35q-50 -47 -68.5 -103.5t-31.5 -95.5q-13 -38 -48 -38q-56 0 -56 58q0 7 2 16q6 14 13.5 87t7.5 77q-3 54 -25 73.5t-45 16.5q-24 -4 -47.5 -13.5t-46 -19t-43 -16.5t-35.5 -7v127q22 2 45.5 10t50 18t57.5 19.5t68 13.5q123 0 123 -142v-38
q54 119 165 119h9v-127z" />
    <glyph glyph-name="uni0629" unicode="&#x629;" horiz-adv-x="592" arabic-form="isolated" 
d="M523 255q4 -7 4 -16q0 -82 -51 -149q-65 -90 -203 -92q-56 -3 -91 41.5t-35 117.5q0 141 130 272q-23 20 -23 44q0 23 19.5 41.5t46.5 18.5q28 0 50 -20q45 -38 91 -105q56 -87 62 -153zM401 236q-6 35 -13 49q-12 26 -35 51q-84 -65 -84 -159q0 -44 20 -50q9 -5 16 -5
q38 0 71 49q29 41 25 65zM221 842q74 -19 74 -67q0 -41 -43 -86t-79 -45q-20 0 -20 18q0 36 63 102q-63 11 -73 24t-10 40q0 74 83 111q10 5 26 -4t16 -27q0 -22 -37 -66z" />
    <glyph glyph-name="uniFBA5" unicode="&#x6c0;" horiz-adv-x="553" arabic-form="final" 
d="M557 0h-5q-78 0 -126.5 65t-104.5 65q-72 -6 -140 -109q-17 -18 -43 -18q-23 0 -41.5 18t-18.5 43q0 15 9 32q112 168 249 167q76 0 135.5 -68t82.5 -68h3v-127zM208 600q74 -19 74 -67q0 -41 -43 -86t-79 -45q-20 0 -20 18q0 36 63 102q-63 11 -73 24t-10 40
q0 74 83 111q10 5 26 -4t16 -27q0 -22 -37 -66z" />
    <glyph glyph-name="uni064A" unicode="&#x64a;" horiz-adv-x="1212" arabic-form="isolated" 
d="M1175 523q-9 -58 -43 -58q-136 -13 -243 -101q-94 -74 -94 -132q0 -7 2 -11q7 -32 57 -51q67 -30 83 -48q43 -38 43 -114q0 -17 -1 -40q-27 -211 -174 -331q-128 -109 -299 -108q-156 2 -265 88q-54 39 -86.5 110.5t-36 167t26.5 211t99 242.5q29 46 72 34t23 -85
q-30 -61 -53 -120q-56 -138 -56 -262v-29q6 -118 87 -183q72 -62 180 -63q134 1 239 88q118 95 131 249q6 63 -70 93q-89 35 -112 92q-10 22 -10 47q0 69 61 157q62 89 160 153.5t203 80.5q8 1 15 1q66 0 61 -78z" />
    <glyph glyph-name="uniFBFD" unicode="&#x6cc;" horiz-adv-x="986" arabic-form="final" 
d="M997 127v-127h-116q-97 0 -100 -34q-2 -15 21 -22q45 -10 81 -48t32 -100q-8 -191 -134 -314.5t-323 -128.5q-75 1 -137.5 24.5t-110 65t-74.5 100t-30 128.5q1 131 61 262t121 189q24 21 48.5 20.5t42 -19t12 -43t-16.5 -36.5q-47 -49 -94.5 -161.5t-47.5 -200.5
q4 -58 30 -99t66 -65.5t91.5 -33t108.5 -4.5q103 12 181 93.5t84 203.5q-3 29 -23.5 47t-66.5 41q-51 27 -48 102q13 160 232 160h110z" />
    <glyph glyph-name="uniFBFE" unicode="&#x6cc;" horiz-adv-x="394" arabic-form="initial" 
d="M337 -318q-16 -54 -73 -54q-31 0 -54 23t-23 55q0 11 2 23q20 53 75 53q12 0 27 -2q52 -23 52 -74q0 -11 -6 -24zM155 -323q-18 -50 -72 -50q-33 0 -55.5 22t-22.5 53q0 13 4 22q15 56 74 56q9 0 23 -4q53 -21 53 -74q0 -13 -4 -25zM-2 127q78 11 108 85q16 39 20 126
q0 69 55 67t55 -94q2 -106 -29.5 -171.5t-83.5 -99t-125 -40.5v127z" />
    <glyph glyph-name="uniFBFF" unicode="&#x6cc;" horiz-adv-x="417" arabic-form="medial" 
d="M372 -313q-17 -57 -74 -57q-32 0 -55 23.5t-23 55.5q0 13 4 25q20 52 74 52q12 0 25 -4q54 -21 54 -73q0 -13 -5 -22zM193 -318q-21 -54 -75 -54q-31 0 -54.5 23t-23.5 55q0 11 5 23q16 53 73 53q11 0 22 -5q55 -17 55 -71q0 -12 -2 -24zM207 244q12 50 58 50h18
q42 -9 42 -71q2 -51 27 -73.5t67 -22.5v-127q-23 0 -48 3.5t-49 13t-44 29t-35 50.5q-58 -96 -251 -96v127q81 -3 135.5 23t79.5 94z" />
    <glyph glyph-name="uni0649" unicode="&#x649;" horiz-adv-x="1212" arabic-form="isolated" 
d="M1175 523q-9 -58 -43 -58q-136 -13 -243 -101q-94 -74 -94 -132q0 -7 2 -11q7 -32 57 -51q67 -30 83 -48q43 -38 43 -114q0 -17 -1 -40q-27 -211 -174 -331q-128 -109 -299 -108q-156 2 -265 88q-54 39 -86.5 110.5t-36 167t26.5 211t99 242.5q29 46 72 34t23 -85
q-30 -61 -53 -120q-56 -138 -56 -262v-29q6 -118 87 -183q72 -62 180 -63q134 1 239 88q118 95 131 249q6 63 -70 93q-89 35 -112 92q-10 22 -10 47q0 69 61 157q62 89 160 153.5t203 80.5q8 1 15 1q66 0 61 -78z" />
    <glyph glyph-name="uniFEF0" unicode="&#x649;" horiz-adv-x="986" arabic-form="final" 
d="M997 127v-127h-116q-97 0 -100 -34q-2 -15 21 -22q45 -10 81 -48t32 -100q-8 -191 -134 -314.5t-323 -128.5q-75 1 -137.5 24.5t-110 65t-74.5 100t-30 128.5q1 131 61 262t121 189q24 21 48.5 20.5t42 -19t12 -43t-16.5 -36.5q-47 -49 -94.5 -161.5t-47.5 -200.5
q4 -58 30 -99t66 -65.5t91.5 -33t108.5 -4.5q103 12 181 93.5t84 203.5q-3 29 -23.5 47t-66.5 41q-51 27 -48 102q13 160 232 160h110z" />
    <glyph glyph-name=".notdef" horiz-adv-x="1024" 
d="M128 0v1298h768v-1298h-768zM256 128h512v1042h-512v-1042z" />
    <glyph glyph-name="glyph1" 
 />
    <glyph glyph-name="glyph2" horiz-adv-x="483" 
 />
    <glyph glyph-name="space" unicode=" " horiz-adv-x="483" 
 />
    <glyph glyph-name="exclam" unicode="!" horiz-adv-x="416" 
d="M309 983q0 -361 -60 -738q-6 -40 -49 -40q-40 0 -40 54q0 12 4 24q56 283 56 728q0 37 33 37q56 0 56 -65zM220 13q-21 -21 -46 -14q-41 4 -41 47q0 33 26.5 65t58.5 27q37 -8 37 -47q0 -45 -35 -78z" />
    <glyph glyph-name="percent" unicode="%" horiz-adv-x="811" 
d="M193 -108l-104 40l471 1069q57 -29 101 -50zM314 832q-22 -70 -101 -70q-24 0 -39 7q-68 20 -68 93q0 11 2 25q25 71 105 71q18 0 37 -5q71 -28 71 -94q0 -14 -7 -27zM675 28q-27 -71 -104 -71q-20 0 -37 7q-70 23 -70 92q0 12 2 25q23 72 105 72q16 0 35 -5
q74 -26 74 -92q0 -13 -5 -28z" />
    <glyph glyph-name="parenleft" unicode="(" horiz-adv-x="560" 
d="M470 1q15 -21 19.5 -40.5t3.5 -38.5q-3 -34 -19.5 -51.5t-47.5 -12.5q-72 8 -155 252q-30 98 -46 191t-14 180q1 22 1 47t4 52q15 160 65 314q37 124 77.5 181t82.5 53q55 -7 49 -94q-3 -36 -20 -59q-43 -92 -70 -194t-36 -222q-2 -18 -2.5 -37t-0.5 -37q-3 -75 8.5 -153
t34.5 -157q16 -58 34.5 -103.5t34.5 -71.5z" />
    <glyph glyph-name="parenright" unicode=")" horiz-adv-x="513" 
d="M191 0q17 26 34 71.5t37 103.5q21 79 33 157t9 153q0 18 -0.5 37t-2.5 37q-18 234 -109 416q-7 12 -11.5 26.5t-6.5 32.5q-9 87 51 94q39 4 80 -53t78 -181q50 -154 65 -314q3 -27 3.5 -52t2.5 -47q2 -87 -14.5 -180t-46.5 -191q-41 -123 -79.5 -185.5t-77.5 -66.5
q-31 -5 -45.5 12.5t-18.5 51.5q-2 19 4 38.5t16 40.5z" />
    <glyph glyph-name="asterisk" unicode="*" horiz-adv-x="975" 
d="M905 691l-53 126l-239 -60v192h-173l3 -189l-239 59l-56 -126l242 -61l-148 -155l137 -76l146 153l149 -153l142 76l-150 155z" />
    <glyph glyph-name="plus" unicode="+" horiz-adv-x="794" 
d="M340 152q1 49 2 96t1 93h-101t-100 -1q-23 7 -35.5 22t-12.5 33.5t12.5 34.5t35.5 19l102 2t101 -1q1 52 0.5 102t-2.5 100q7 25 23.5 36.5t34 11.5t33 -11.5t19.5 -36.5q2 -51 2 -101.5v-101.5q94 -3 187 -3q29 -4 43 -21t14 -36.5t-15 -35.5t-43 -17q-49 2 -95.5 2
t-92.5 2q-1 -46 -2.5 -94.5t-1.5 -94.5q-4 -29 -21 -43t-36 -13t-35 15t-17 42z" />
    <glyph glyph-name="comma" unicode="," horiz-adv-x="440" 
d="M227 356h7q36 0 59 -20q24 -22 36 -57q11 -33 11 -72v-6q-1 -43 -12 -83t-31 -71t-44 -44q-12 -3 -22 -3q-12 0 -22 4q-18 7 -26 22t-6.5 33t17.5 33q19 24 25.5 49.5t9.5 52.5q-48 -8 -70 16q-22 22 -22 55q0 1 1 2q0 33 23 61t66 28z" />
    <glyph glyph-name="hyphen" unicode="-" horiz-adv-x="903" 
d="M703 315q-129 2 -252.5 4.5t-248.5 0.5q-24 5 -35.5 21.5t-11.5 34.5t12 33t36 20q126 3 250 0.5t250 -5.5q28 -3 42.5 -20t14 -36t-15 -35.5t-41.5 -17.5z" />
    <glyph glyph-name="period" unicode="." horiz-adv-x="402" 
d="M332 33q-20 -54 -71 -54q-32 0 -55 22.5t-23 54.5q0 11 1 27q19 50 73 50q15 0 26 -4q53 -19 53 -73q0 -11 -4 -23z" />
    <glyph glyph-name="slash" unicode="/" horiz-adv-x="675" 
d="M130 -79l-80 20l452 1027q24 -12 79 -25z" />
    <glyph glyph-name="zero" unicode="0" horiz-adv-x="485" 
d="M375 384q0 -57 -40.5 -96.5t-96.5 -39.5q-58 0 -96 39.5t-38 96.5t38 96.5t96 39.5q61 0 99 -39.5t38 -96.5z" />
    <glyph glyph-name="zero" unicode="&#x6f0;" horiz-adv-x="485" 
d="M375 384q0 -57 -40.5 -96.5t-96.5 -39.5q-58 0 -96 39.5t-38 96.5t38 96.5t96 39.5q61 0 99 -39.5t38 -96.5z" />
    <glyph glyph-name="zero" unicode="&#x660;" horiz-adv-x="485" 
d="M375 384q0 -57 -40.5 -96.5t-96.5 -39.5q-58 0 -96 39.5t-38 96.5t38 96.5t96 39.5q61 0 99 -39.5t38 -96.5z" />
    <glyph glyph-name="one" unicode="1" horiz-adv-x="439" 
d="M327 305q0 -168 -4 -216q-18 -136 -82 -136t-61 84q4 73 4 145q0 345 -76 631q-7 29 -7 55q0 84 76 84q62 0 89 -94q61 -237 61 -553z" />
    <glyph glyph-name="one" unicode="&#x6f1;" horiz-adv-x="439" 
d="M327 305q0 -168 -4 -216q-18 -136 -82 -136t-61 84q4 73 4 145q0 345 -76 631q-7 29 -7 55q0 84 76 84q62 0 89 -94q61 -237 61 -553z" />
    <glyph glyph-name="one" unicode="&#x661;" horiz-adv-x="439" 
d="M327 305q0 -168 -4 -216q-18 -136 -82 -136t-61 84q4 73 4 145q0 345 -76 631q-7 29 -7 55q0 84 76 84q62 0 89 -94q61 -237 61 -553z" />
    <glyph glyph-name="two" unicode="2" horiz-adv-x="776" 
d="M683 872q0 -134 -58.5 -206.5t-163 -82.5t-163.5 39q42 -183 38.5 -379.5t-26.5 -234.5q-19 -36 -66.5 -28t-47.5 81q22 157 -4.5 365.5t-85.5 398.5q-11 28 -11 52q1 72 51 82t81 -34q12 -16 32 -66q55 -127 179 -127q108 0 108 137q0 99 68 99q31 0 50 -31
q19 -28 19 -65z" />
    <glyph glyph-name="two" unicode="&#x6f2;" horiz-adv-x="776" 
d="M683 872q0 -134 -58.5 -206.5t-163 -82.5t-163.5 39q42 -183 38.5 -379.5t-26.5 -234.5q-19 -36 -66.5 -28t-47.5 81q22 157 -4.5 365.5t-85.5 398.5q-11 28 -11 52q1 72 51 82t81 -34q12 -16 32 -66q55 -127 179 -127q108 0 108 137q0 99 68 99q31 0 50 -31
q19 -28 19 -65z" />
    <glyph glyph-name="two" unicode="&#x662;" horiz-adv-x="776" 
d="M683 872q0 -134 -58.5 -206.5t-163 -82.5t-163.5 39q42 -183 38.5 -379.5t-26.5 -234.5q-19 -36 -66.5 -28t-47.5 81q22 157 -4.5 365.5t-85.5 398.5q-11 28 -11 52q1 72 51 82t81 -34q12 -16 32 -66q55 -127 179 -127q108 0 108 137q0 99 68 99q31 0 50 -31
q19 -28 19 -65z" />
    <glyph glyph-name="three" unicode="3" horiz-adv-x="958" 
d="M859 858q0 -114 -44 -187q-51 -78 -136.5 -82.5t-147.5 63.5q-41 -64 -110 -75t-103 17q32 -174 36.5 -323t-4.5 -207q-13 -83 -70 -83q-56 0 -57 80q2 233 -21 377t-55 232l-56 155q-6 21 -6 47q1 80 74 82q51 -2 88 -96q22 -46 57 -82q40 -44 84 -44q84 0 84 136
q0 86 68 86q67 0 67 -92q0 -58 6 -78q14 -37 57 -37q68 0 68 115q0 82 56 82q65 0 65 -86z" />
    <glyph glyph-name="three" unicode="&#x6f3;" horiz-adv-x="958" 
d="M859 858q0 -114 -44 -187q-51 -78 -136.5 -82.5t-147.5 63.5q-41 -64 -110 -75t-103 17q32 -174 36.5 -323t-4.5 -207q-13 -83 -70 -83q-56 0 -57 80q2 233 -21 377t-55 232l-56 155q-6 21 -6 47q1 80 74 82q51 -2 88 -96q22 -46 57 -82q40 -44 84 -44q84 0 84 136
q0 86 68 86q67 0 67 -92q0 -58 6 -78q14 -37 57 -37q68 0 68 115q0 82 56 82q65 0 65 -86z" />
    <glyph glyph-name="three" unicode="&#x663;" horiz-adv-x="958" 
d="M859 858q0 -114 -44 -187q-51 -78 -136.5 -82.5t-147.5 63.5q-41 -64 -110 -75t-103 17q32 -174 36.5 -323t-4.5 -207q-13 -83 -70 -83q-56 0 -57 80q2 233 -21 377t-55 232l-56 155q-6 21 -6 47q1 80 74 82q51 -2 88 -96q22 -46 57 -82q40 -44 84 -44q84 0 84 136
q0 86 68 86q67 0 67 -92q0 -58 6 -78q14 -37 57 -37q68 0 68 115q0 82 56 82q65 0 65 -86z" />
    <glyph glyph-name="four" unicode="4" horiz-adv-x="870" 
d="M775 644q0 -40 -45 -77q-83 -52 -212 -57t-219 46q32 -190 32 -335q0 -204 -23 -247q-14 -23 -51 -23q-64 0 -65 75l-10 378q-26 209 -88 360q-12 31 -12 56q0 79 79 79q35 0 81 -74q57 -125 114 -140q-36 150 45.5 238t228.5 46q73 -26 71.5 -73t-41.5 -52q-18 0 -52 9
t-53 9q-65 -5 -77.5 -68t18 -103.5t74.5 -40.5q35 0 90.5 22t67.5 22q47 0 47 -50z" />
    <glyph glyph-name="four" unicode="&#x6f4;" horiz-adv-x="870" 
d="M775 644q0 -40 -45 -77q-83 -52 -212 -57t-219 46q32 -190 32 -335q0 -204 -23 -247q-14 -23 -51 -23q-64 0 -65 75l-10 378q-26 209 -88 360q-12 31 -12 56q0 79 79 79q35 0 81 -74q57 -125 114 -140q-36 150 45.5 238t228.5 46q73 -26 71.5 -73t-41.5 -52q-18 0 -52 9
t-53 9q-65 -5 -77.5 -68t18 -103.5t74.5 -40.5q35 0 90.5 22t67.5 22q47 0 47 -50z" />
    <glyph glyph-name="four" unicode="&#x664;" horiz-adv-x="870" 
d="M775 644q0 -40 -45 -77q-83 -52 -212 -57t-219 46q32 -190 32 -335q0 -204 -23 -247q-14 -23 -51 -23q-64 0 -65 75l-10 378q-26 209 -88 360q-12 31 -12 56q0 79 79 79q35 0 81 -74q57 -125 114 -140q-36 150 45.5 238t228.5 46q73 -26 71.5 -73t-41.5 -52q-18 0 -52 9
t-53 9q-65 -5 -77.5 -68t18 -103.5t74.5 -40.5q35 0 90.5 22t67.5 22q47 0 47 -50z" />
    <glyph glyph-name="five" unicode="5" horiz-adv-x="893" 
d="M801 218q0 -135 -68.5 -193.5t-143.5 -58.5q-90 0 -144 64q-72 -73 -170.5 -74t-145 58t-46.5 150q0 251 249 572l-31 26q-35 28 -35 64q0 38 24 61.5t61 23.5q34 0 62 -27q197 -151 292.5 -320t95.5 -346zM664 244q0 92 -63.5 216t-175.5 208q-79 -102 -148 -230
t-69 -210q0 -116 83 -116q45 0 87 48q38 43 54 43q19 0 56 -40q40 -46 81 -46q95 0 95 127z" />
    <glyph glyph-name="five" unicode="&#x6f5;" horiz-adv-x="893" 
d="M801 218q0 -135 -68.5 -193.5t-143.5 -58.5q-90 0 -144 64q-72 -73 -170.5 -74t-145 58t-46.5 150q0 251 249 572l-31 26q-35 28 -35 64q0 38 24 61.5t61 23.5q34 0 62 -27q197 -151 292.5 -320t95.5 -346zM664 244q0 92 -63.5 216t-175.5 208q-79 -102 -148 -230
t-69 -210q0 -116 83 -116q45 0 87 48q38 43 54 43q19 0 56 -40q40 -46 81 -46q95 0 95 127z" />
    <glyph glyph-name="five" unicode="&#x665;" horiz-adv-x="893" 
d="M801 218q0 -135 -68.5 -193.5t-143.5 -58.5q-90 0 -144 64q-72 -73 -170.5 -74t-145 58t-46.5 150q0 251 249 572l-31 26q-35 28 -35 64q0 38 24 61.5t61 23.5q34 0 62 -27q197 -151 292.5 -320t95.5 -346zM664 244q0 92 -63.5 216t-175.5 208q-79 -102 -148 -230
t-69 -210q0 -116 83 -116q45 0 87 48q38 43 54 43q19 0 56 -40q40 -46 81 -46q95 0 95 127z" />
    <glyph glyph-name="six" unicode="6" horiz-adv-x="884" 
d="M798 628q0 -55 -128 -133q-222 -133 -375 -355q-26 -37 -95 -142q-29 -44 -69 -44q-53 0 -53 58q0 19 9 39q69 181 264 395q-71 13 -124 73q-63 70 -63 160q0 123 78 204t203 81q55 0 100 -22q53 -31 53 -74q0 -31 -39 -36l-113 -9q-60 -1 -99 -33q-41 -37 -41 -96
q0 -50 54 -82q44 -28 99 -28q41 0 140 54t129 54q70 0 70 -64z" />
    <glyph glyph-name="six" unicode="&#x6f6;" horiz-adv-x="884" 
d="M798 628q0 -55 -128 -133q-222 -133 -375 -355q-26 -37 -95 -142q-29 -44 -69 -44q-53 0 -53 58q0 19 9 39q69 181 264 395q-71 13 -124 73q-63 70 -63 160q0 123 78 204t203 81q55 0 100 -22q53 -31 53 -74q0 -31 -39 -36l-113 -9q-60 -1 -99 -33q-41 -37 -41 -96
q0 -50 54 -82q44 -28 99 -28q41 0 140 54t129 54q70 0 70 -64z" />
    <glyph glyph-name="six" unicode="&#x666;" horiz-adv-x="884" 
d="M798 628q0 -55 -128 -133q-222 -133 -375 -355q-26 -37 -95 -142q-29 -44 -69 -44q-53 0 -53 58q0 19 9 39q69 181 264 395q-71 13 -124 73q-63 70 -63 160q0 123 78 204t203 81q55 0 100 -22q53 -31 53 -74q0 -31 -39 -36l-113 -9q-60 -1 -99 -33q-41 -37 -41 -96
q0 -50 54 -82q44 -28 99 -28q41 0 140 54t129 54q70 0 70 -64z" />
    <glyph glyph-name="seven" unicode="7" horiz-adv-x="870" 
d="M783 865q0 -43 -32 -94q-78 -112 -149 -319q-83 -269 -94 -419q-8 -79 -71 -79t-70 79q-12 150 -91 416q-77 210 -151 322q-32 51 -32 94q0 73 62 73q50 0 92 -66q163 -246 193 -534q36 299 190 534q42 66 89 66q64 0 64 -73z" />
    <glyph glyph-name="seven" unicode="&#x6f7;" horiz-adv-x="870" 
d="M783 865q0 -43 -32 -94q-78 -112 -149 -319q-83 -269 -94 -419q-8 -79 -71 -79t-70 79q-12 150 -91 416q-77 210 -151 322q-32 51 -32 94q0 73 62 73q50 0 92 -66q163 -246 193 -534q36 299 190 534q42 66 89 66q64 0 64 -73z" />
    <glyph glyph-name="seven" unicode="&#x667;" horiz-adv-x="870" 
d="M783 865q0 -43 -32 -94q-78 -112 -149 -319q-83 -269 -94 -419q-8 -79 -71 -79t-70 79q-12 150 -91 416q-77 210 -151 322q-32 51 -32 94q0 73 62 73q50 0 92 -66q163 -246 193 -534q36 299 190 534q42 66 89 66q64 0 64 -73z" />
    <glyph glyph-name="eight" unicode="8" horiz-adv-x="863" 
d="M771 30q0 -75 -64 -75q-47 0 -94 66q-159 244 -190 534q-38 -299 -190 -534q-43 -66 -93 -66q-61 0 -61 77q0 44 32 92q78 110 150 319q80 268 93 419q8 79 69 79q65 0 72 -79q12 -151 91 -416q74 -212 148 -322q37 -51 37 -94z" />
    <glyph glyph-name="eight" unicode="&#x6f8;" horiz-adv-x="863" 
d="M771 30q0 -75 -64 -75q-47 0 -94 66q-159 244 -190 534q-38 -299 -190 -534q-43 -66 -93 -66q-61 0 -61 77q0 44 32 92q78 110 150 319q80 268 93 419q8 79 69 79q65 0 72 -79q12 -151 91 -416q74 -212 148 -322q37 -51 37 -94z" />
    <glyph glyph-name="eight" unicode="&#x668;" horiz-adv-x="863" 
d="M771 30q0 -75 -64 -75q-47 0 -94 66q-159 244 -190 534q-38 -299 -190 -534q-43 -66 -93 -66q-61 0 -61 77q0 44 32 92q78 110 150 319q80 268 93 419q8 79 69 79q65 0 72 -79q12 -151 91 -416q74 -212 148 -322q37 -51 37 -94z" />
    <glyph glyph-name="nine" unicode="9" horiz-adv-x="695" 
d="M624 37q0 -90 -76 -90q-59 0 -100 156q-47 189 -47 386q-196 0 -269 62q-59 49 -59 159q0 113 70 194q72 89 181 89q208 0 208 -346q0 -194 22 -336q11 -70 52 -189q18 -56 18 -85zM397 655q0 182 -91 182q-45 0 -73 -30t-28 -75q0 -81 128 -81q26 0 64 4z" />
    <glyph glyph-name="nine" unicode="&#x6f9;" horiz-adv-x="695" 
d="M624 37q0 -90 -76 -90q-59 0 -100 156q-47 189 -47 386q-196 0 -269 62q-59 49 -59 159q0 113 70 194q72 89 181 89q208 0 208 -346q0 -194 22 -336q11 -70 52 -189q18 -56 18 -85zM397 655q0 182 -91 182q-45 0 -73 -30t-28 -75q0 -81 128 -81q26 0 64 4z" />
    <glyph glyph-name="nine" unicode="&#x669;" horiz-adv-x="695" 
d="M624 37q0 -90 -76 -90q-59 0 -100 156q-47 189 -47 386q-196 0 -269 62q-59 49 -59 159q0 113 70 194q72 89 181 89q208 0 208 -346q0 -194 22 -336q11 -70 52 -189q18 -56 18 -85zM397 655q0 182 -91 182q-45 0 -73 -30t-28 -75q0 -81 128 -81q26 0 64 4z" />
    <glyph glyph-name="colon" unicode=":" horiz-adv-x="422" 
d="M330 33q-19 -54 -73 -54q-32 0 -55 22.5t-23 54.5q0 11 4 27q17 50 72 50q15 0 24 -4q53 -19 53 -73q0 -11 -2 -23zM343 529q-19 -50 -73 -50q-32 0 -55 21.5t-23 52.5q0 13 4 27q17 52 72 52q15 0 24 -6q53 -19 53 -73q0 -12 -2 -24z" />
    <glyph glyph-name="equal" unicode="=" horiz-adv-x="821" 
d="M654 329q-129 1 -252.5 4.5t-248.5 0.5q-24 6 -35.5 21.5t-11.5 33.5t12 33t36 19q127 5 250.5 2t250.5 -6q29 -2 42.5 -19.5t13 -37t-15 -35.5t-41.5 -16zM654 138q-129 2 -252.5 4t-248.5 -2q-24 6 -35.5 22t-11.5 33t12 32.5t36 21.5q127 5 250.5 2t250.5 -6
q29 -3 42.5 -20t13 -36t-15 -34.5t-41.5 -16.5z" />
    <glyph glyph-name="bracketleft" unicode="[" horiz-adv-x="520" 
d="M521 -495h-346v1766h346v-148h-193v-1469h193v-149z" />
    <glyph glyph-name="bracketright" unicode="]" horiz-adv-x="520" 
d="M174 1271h346v-1766h-346v148h193v1469h-193v149z" />
    <glyph glyph-name="braceleft" unicode="{" horiz-adv-x="981" 
d="M847 -332q-176 31 -277 136q-105 110 -105 262q0 62 26 178q19 85 19 111q0 94 -69 157q-63 59 -169 71v53q239 52 239 212q0 46 -16 121q-27 126 -27 189q0 154 103 262q100 106 276 135v-61q-100 -15 -158 -70q-64 -62 -64 -150q0 -46 13 -114q30 -161 30 -211
q0 -230 -272 -336q269 -111 269 -350q0 -50 -27 -180q-17 -82 -17 -134q0 -172 226 -225v-56z" />
    <glyph glyph-name="braceright" unicode="}" horiz-adv-x="981" 
d="M272 -276q226 53 226 225q0 52 -17 134q-27 130 -27 180q0 239 269 350q-272 106 -272 336q0 50 30 211q13 68 13 114q0 88 -64 150q-58 55 -158 70v61q176 -29 276 -135q103 -108 103 -262q0 -63 -27 -189q-16 -75 -16 -121q0 -160 239 -212v-53q-106 -12 -169 -71
q-69 -63 -69 -157q0 -26 19 -111q26 -116 26 -178q0 -152 -105 -262q-101 -105 -277 -136v56z" />
    <glyph glyph-name="guillemotleft" unicode="&#xab;" horiz-adv-x="595" 
d="M319 -12q5 -8 0 -14q-7 -7 -10 0q-68 27 -117 104q-59 88 -59 181q0 95 59 181q49 75 108 106q11 1 16 -7q4 -4 0 -14q-93 -141 -93 -263q0 -85 30 -159q16 -36 66 -115zM537 -8q5 -12 0 -18q-6 -6 -16 0q-62 29 -116 109q-54 83 -54 179q0 92 54 178q49 75 115 106
q7 1 11 -5q6 -6 0 -14q-43 -72 -61 -112q-31 -68 -31 -152q0 -86 35 -160q10 -33 63 -111z" />
    <glyph glyph-name="guillemotright" unicode="&#xbb;" horiz-adv-x="613" 
d="M375 -12q48 79 64 115q31 74 31 159q0 122 -92 263q-4 10 0 14q3 8 13 7q61 -31 111 -106q58 -86 58 -181q0 -93 -58 -181q-50 -77 -116 -104q-5 -7 -11 0q-5 6 0 14zM158 -8q51 78 64 111q32 74 32 160q0 84 -29 152q-20 40 -62 112q-5 8 0 14q3 6 12 5q64 -31 114 -106
q53 -86 53 -178q0 -96 -53 -179q-53 -80 -117 -109q-9 -6 -14 0q-7 6 0 18z" />
    <glyph glyph-name="multiply" unicode="&#xd7;" horiz-adv-x="946" 
d="M802 219l-58 -57l-277 275l-277 -275l-59 57l275 278l-275 278l62 56l274 -276l277 276l58 -56l-279 -278z" />
    <glyph glyph-name="divide" unicode="&#xf7;" horiz-adv-x="946" 
d="M549 772q0 -36 -23.5 -61.5t-59.5 -25.5q-35 0 -60.5 26t-25.5 61q0 36 25 59.5t61 23.5q35 0 59 -24t24 -59zM835 452h-730v83h730v-83zM549 215q0 -36 -23.5 -61t-59.5 -25q-35 0 -60.5 25.5t-25.5 60.5q0 36 25 60.5t61 24.5q83 0 83 -85z" />
    <glyph glyph-name="uni200C" unicode="&#x200c;" horiz-adv-x="33" 
 />
    <glyph glyph-name="uni200D" unicode="&#x200d;" horiz-adv-x="33" 
 />
    <glyph glyph-name="uni200E" unicode="&#x200e;" horiz-adv-x="33" 
d="M219 1167l-97 -100l-25 21l64 64h-128v-1152h-33v1183h157l-60 60l25 23z" />
    <glyph glyph-name="uni200F" unicode="&#x200f;" horiz-adv-x="33" 
d="M33 0h-33v1152h-128l62 -64l-21 -21l-101 100l101 99l21 -23l-60 -60h159v-1183z" />
    <glyph glyph-name="quoteleft" unicode="&#x2018;" horiz-adv-x="491" 
d="M467 1486q-89 -59 -154 -145q-76 -101 -76 -193q0 -55 32 -98q39 47 90 47q102 0 102 -100q0 -59 -48 -92q-43 -30 -104 -30q-82 0 -133 50.5t-51 132.5q0 141 108 283q97 127 234 200v-55z" />
    <glyph glyph-name="quoteright" unicode="&#x2019;" horiz-adv-x="491" 
d="M444 1353q0 -143 -107 -281q-91 -118 -232 -200v56q228 162 228 338q0 62 -33 101q-33 -49 -95 -49q-41 0 -69.5 28t-28.5 69q0 58 49 93q43 31 104 31q86 0 135 -50t49 -136z" />
    <glyph glyph-name="quotedblleft" unicode="&#x201c;" horiz-adv-x="650" 
d="M572 1146q-13 -6 -41 -26q-52 -51 -52 -95q82 -22 82 -112q0 -45 -31.5 -78t-76.5 -33q-52 0 -84 42q-29 38 -29 92q0 201 203 359q0 -83 1 -93q4 -40 28 -56zM302 1146q-13 -6 -41 -26q-52 -51 -52 -95q82 -22 82 -112q0 -45 -31.5 -78t-76.5 -33q-52 0 -84 42
q-29 38 -29 92q0 201 203 359q0 -83 1 -93q4 -40 28 -56z" />
    <glyph glyph-name="quotedblright" unicode="&#x201d;" horiz-adv-x="650" 
d="M580 1151q0 -201 -203 -359q0 83 -1 93q-4 40 -28 56q13 6 41 26q52 51 52 95q-82 22 -82 112q0 46 31 78.5t77 32.5q54 0 85 -41q28 -37 28 -93zM310 1151q0 -201 -203 -359q0 83 -1 93q-4 40 -28 56q13 6 41 26q52 51 52 95q-82 22 -82 112q0 46 31 78.5t77 32.5
q54 0 85 -41q28 -37 28 -93z" />
    <glyph glyph-name="guilsinglleft" unicode="&#x2039;" horiz-adv-x="512" 
d="M457 966l-228 -382l222 -380v-75l-383 455l389 457v-75z" />
    <glyph glyph-name="guilsinglright" unicode="&#x203a;" horiz-adv-x="512" 
d="M457 586l-393 -457v75l231 382l-222 381v77z" />
    <glyph glyph-name="uni060C" unicode="&#x60c;" horiz-adv-x="388" 
d="M385 1h-217v154q0 98 19 149q13 52 61 99q31 30 99 55l30 -77q-64 -21 -96 -61q-24 -39 -28 -104h132v-215z" />
    <glyph glyph-name="uni061B" unicode="&#x61b;" horiz-adv-x="430" 
d="M332 33q-21 -54 -74 -54q-32 0 -54.5 22.5t-22.5 54.5q0 11 4 27q16 50 71 50q16 0 27 -4q50 -19 50 -73q0 -11 -1 -23zM258 236q-40 -2 -65 20t-36.5 57.5t-10.5 78.5t11.5 82.5t30 71.5t44.5 45q25 6 43.5 -1.5t27 -22.5t6 -33.5t-18.5 -33.5q-16 -20 -23 -47t-9 -54
q32 5 52 -5t29.5 -27.5t8 -40.5t-12 -43t-30 -33.5t-47.5 -13.5z" />
    <glyph glyph-name="uni061F" unicode="&#x61f;" horiz-adv-x="705" 
d="M634 1048q-32 -65 -65 -106q-81 32 -141 32q-46 0 -79 -31.5t-33 -65.5q0 -57 96 -153q74 -77 100 -111q48 -68 48 -132q0 -97 -107 -191l-66 59q94 78 94 136q0 51 -80 120q-68 68 -139 133q-72 87 -72 167q0 85 58 150q79 73 180 73q58 0 122 -24.5t84 -55.5zM496 61
q-21 -53 -74 -53q-32 0 -54 22t-22 55q0 13 3 25q17 53 72 53q15 0 26 -6q52 -17 52 -72q0 -12 -3 -24z" />
    <glyph glyph-name="uni0640" unicode="&#x640;" horiz-adv-x="271" 
d="M273 0h-277v127h277v-127z" />
    <glyph glyph-name="uni064B" unicode="&#x64b;" 
d="M380 1640l-340 -92l-14 58l341 97zM388 1508l-340 -93l-15 57l340 97z" />
    <glyph glyph-name="uni064C" unicode="&#x64c;" 
d="M396 1683q0 -87 -80 -148l48 -33l-39 -44q-41 21 -58 42q-85 -57 -214 -88l-24 53q11 4 23 12q31 30 31 67q0 18 -15 24q-20 10 -49 -8l-5 33q36 31 70 31q42 0 42 -50q0 -30 -27 -81q77 17 121 60q-24 39 -24 71q0 44 36 90t79 46q34 0 59.5 -21.5t25.5 -55.5zM344 1662
q0 43 -48 43q-20 0 -38 -22t-18 -41q0 -17 12 -37.5t28 -24.5q24 5 44 30.5t20 51.5z" />
    <glyph glyph-name="uni064D" unicode="&#x64d;" 
d="M416 -822l-341 -92l-13 58l340 96zM424 -954l-341 -92l-13 56l339 98z" />
    <glyph glyph-name="uni064E" unicode="&#x64e;" 
d="M389 1508l-341 -93l-14 57l341 97z" />
    <glyph glyph-name="uni064F" unicode="&#x64f;" 
d="M398 1680q0 -88 -81 -145l48 -33l-38 -44q-36 25 -51 46q-105 -68 -221 -92l-25 53q92 31 101 35q60 24 90 52q-25 41 -25 72q0 44 36 90t80 46q34 0 60 -22.5t26 -57.5zM345 1662q0 43 -49 43q-21 0 -40.5 -24t-19.5 -45q0 -43 43 -60q25 8 45.5 33.5t20.5 52.5z" />
    <glyph glyph-name="uni0650" unicode="&#x650;" 
d="M425 -909l-341 -91l-13 57l340 97z" />
    <glyph glyph-name="uni0651" unicode="&#x651;" 
d="M397 1680q6 -42 6 -76q0 -164 -112 -164q-56 0 -76 75q-46 -102 -123 -102q-69 0 -69 84q0 54 34 111h40q-16 -45 -16 -68q0 -38 41 -38q33 0 55 49q16 36 21 77l49 20q1 -55 6 -74q10 -42 47 -42q53 0 53 65q0 25 -6 65z" />
    <glyph glyph-name="uni0652" unicode="&#x652;" 
d="M332 1554q0 -56 -34 -97q-37 -42 -92 -42q-48 0 -79 30t-31 78q0 56 24 105q30 63 82 63q38 0 80 -35q50 -41 50 -102zM277 1548q0 28 -27.5 50t-55.5 22q-19 0 -34 -24.5t-15 -43.5q0 -50 63 -50q21 0 43 12q26 14 26 34z" />
    <glyph glyph-name="uniE820" unicode="&#xe820;" 
d="M394 1194l-340 -91l-14 57l340 96z" />
    <glyph glyph-name="uniE821" unicode="&#xe821;" 
d="M410 1396q0 -89 -81 -145l47 -34l-37 -43q-37 24 -52 45q-104 -69 -221 -91l-24 52q91 32 101 36q59 24 89 52q-24 40 -24 72q0 44 35 88q37 47 81 47q34 0 60 -22t26 -57zM357 1376q0 45 -49 45q-21 0 -40.5 -24t-19.5 -45q0 -44 42 -60q26 8 46.5 33t20.5 51z" />
    <glyph glyph-name="uniE822" unicode="&#xe822;" 
d="M313 1256q0 -56 -34 -96q-37 -42 -92 -42q-48 0 -79 30.5t-31 76.5q0 57 24 106q30 62 82 62q38 0 80 -33q50 -43 50 -104zM258 1251q0 29 -27.5 51t-55.5 22q-19 0 -34 -25.5t-15 -43.5q0 -50 63 -50q21 0 43 12q26 15 26 34z" />
    <glyph glyph-name="uniE823" unicode="&#xe823;" 
d="M375 1340l-341 -92l-13 58l340 97zM383 1208l-341 -93l-14 57l340 97z" />
    <glyph glyph-name="uniE824" unicode="&#xe824;" 
d="M435 1395q0 -87 -80 -148l48 -33l-39 -44q-41 22 -58 42q-85 -57 -215 -87l-23 53q10 4 22 12q32 29 32 66q0 18 -15 25q-20 9 -49 -9l-5 33q35 31 70 31q41 0 41 -49q0 -30 -26 -81q77 16 121 60q-25 38 -25 70q0 44 35 88q37 48 81 48q33 0 59 -21.5t26 -55.5z
M383 1374q0 44 -49 44q-19 0 -37 -22t-18 -41q0 -18 12 -38.5t28 -24.5q24 5 44 30.5t20 51.5z" />
    <glyph glyph-name="uniE825" unicode="&#xe825;" 
d="M397 1369q6 -40 6 -74q0 -164 -112 -164q-56 0 -76 74q-46 -101 -123 -101q-69 0 -69 84q0 53 34 110h40q-16 -44 -16 -68q0 -38 41 -38q33 0 55 49q16 36 21 78l49 19q1 -54 6 -73q10 -43 47 -43q53 0 53 65q0 26 -6 65z" />
    <glyph glyph-name="uniE826" unicode="&#xe826;" 
d="M358 -368l-341 -91l-13 57l340 96z" />
    <glyph glyph-name="uniE827" unicode="&#xe827;" 
d="M339 -374l-339 -91l-15 57l341 97zM347 -506l-340 -92l-13 56l339 97z" />
    <glyph glyph-name="uniE828" unicode="&#xe828;" 
d="M399 1300q6 -41 6 -75q0 -164 -112 -164q-56 0 -76 75q-46 -101 -123 -101q-69 0 -69 83q0 54 34 110h40q-16 -44 -16 -68q0 -37 41 -37q33 0 55 49q16 36 21 77l49 20q1 -55 6 -73q10 -44 47 -44q53 0 53 66q0 25 -7 65zM403 1407l-340 -91l-15 57l340 96z" />
    <glyph glyph-name="uniE829" unicode="&#xe829;" 
d="M394 1296q6 -41 6 -75q0 -164 -112 -164q-56 0 -76 75q-46 -102 -123 -102q-69 0 -69 84q0 54 34 110h40q-16 -44 -16 -68q0 -38 41 -38q33 0 55 50q16 36 20 77l50 19q1 -55 6 -72q10 -44 47 -44q53 0 53 65q0 27 -7 65zM396 1576q0 -88 -80 -145l47 -33l-37 -44
q-37 25 -52 46q-104 -69 -220 -92l-25 53q91 31 101 35q60 24 90 53q-25 40 -25 71q0 44 35 88q37 48 80 48q36 0 61 -22t25 -58zM345 1558q0 44 -51 44q-20 0 -40 -24t-20 -46q0 -43 43 -60q25 8 46.5 33.5t21.5 52.5z" />
    <glyph glyph-name="uniE82A" unicode="&#xe82a;" 
d="M391 1303q6 -41 6 -75q0 -164 -113 -164q-55 0 -75 74q-46 -101 -123 -101q-69 0 -69 83q0 55 33 112h41q-16 -45 -16 -68q0 -39 41 -39q33 0 55 50q16 35 20 77l50 19q1 -54 6 -73q10 -42 47 -42q53 0 53 64q0 26 -7 65zM375 1537l-340 -92l-13 58l340 97zM383 1404
l-340 -92l-15 57l341 97z" />
    <glyph glyph-name="uniE82B" unicode="&#xe82b;" 
d="M404 1306q5 -40 5 -74q0 -164 -112 -164q-56 0 -76 74q-46 -101 -123 -101q-69 0 -69 83q0 55 34 111h41q-17 -44 -17 -69q0 -37 41 -37q34 0 56 50q16 35 20 77l49 19q1 -55 6 -73q10 -43 47 -43q54 0 54 65q0 26 -7 64zM396 1574q0 -88 -80 -149l48 -33l-39 -44
q-41 22 -57 43q-86 -58 -215 -87l-24 52q11 5 23 12q31 29 31 67q0 17 -15 25q-20 8 -49 -8l-5 32q36 31 70 31q42 0 42 -49q0 -30 -27 -82q77 16 121 60q-24 39 -24 71q0 44 35 89q37 46 80 46q34 0 59.5 -21t25.5 -55zM345 1552q0 44 -49 44q-20 0 -38 -22t-18 -41
q0 -17 12 -37.5t28 -25.5q24 6 44.5 31.5t20.5 50.5z" />
    <glyph glyph-name="uniE82C" unicode="&#xe82c;" horiz-adv-x="1" 
d="M397 1478q6 -41 6 -74q0 -164 -113 -164q-56 0 -76 74q-46 -102 -122 -102q-69 0 -69 84q0 54 33 111h41q-17 -45 -17 -68q0 -39 42 -39q33 0 55 50q16 36 20 78l49 19q2 -55 7 -73q10 -43 46 -43q54 0 54 65q0 26 -7 64zM388 1117l-341 -91l-13 56l340 97z" />
    <glyph glyph-name="uniE82D" unicode="&#xe82d;" horiz-adv-x="1" 
d="M382 1618q6 -41 6 -74q0 -165 -113 -165q-56 0 -76 74q-45 -101 -122 -101q-69 0 -69 84q0 53 33 110h41q-17 -44 -17 -68q0 -38 42 -38q33 0 55 49q16 37 20 78l50 20q1 -55 6 -74q10 -43 46 -43q54 0 54 66q0 24 -7 64zM380 1240l-342 -92l-12 57l340 96zM387 1107
l-341 -93l-13 58l341 96z" />
    <glyph glyph-name="uni0621" unicode="&#x621;" horiz-adv-x="755" 
d="M753 120l-587 -150v127l125 53l-35 48q-19 37 -19 93q0 88 72 157.5t161 69.5q116 0 181 -62l-37 -113q-50 30 -152 30q-29 0 -65 -18q-40 -21 -40 -47q0 -44 60 -66q44 -16 97 -16q28 0 239 69v-175z" />
    <glyph glyph-name="periodcentered" unicode="&#xb7;" horiz-adv-x="405" 
d="M326 768q0 -50 -35.5 -85t-85.5 -35q-49 0 -84.5 35.5t-35.5 84.5t34.5 85t83.5 36q51 0 87 -35t36 -86z" />
    <glyph glyph-name="periodcentered" unicode="&#x2219;" horiz-adv-x="405" 
d="M326 768q0 -50 -35.5 -85t-85.5 -35q-49 0 -84.5 35.5t-35.5 84.5t34.5 85t83.5 36q51 0 87 -35t36 -86z" />
    <glyph glyph-name="periodcentered" unicode="&#x2d9;" horiz-adv-x="405" 
d="M326 768q0 -50 -35.5 -85t-85.5 -35q-49 0 -84.5 35.5t-35.5 84.5t34.5 85t83.5 36q51 0 87 -35t36 -86z" />
    <glyph glyph-name="uniFD3E" unicode="&#xfd3e;" horiz-adv-x="1135" 
d="M1075 -612q0 -15 -24 -15q-76 0 -229 151q-201 196 -314 499q-209 3 -209 55q137 144 137 223q-62 0 -133.5 -73.5t-81.5 -73.5q-38 0 -55 163q-111 54 -111 95q0 46 105 108q11 156 49 156q153 -144 227 -144q-7 77 -78 146t-71 78q0 16 61 35q69 21 154 24
q72 217 195 388q95 133 204 219q87 69 123 69q20 0 20 -23q0 -10 -73 -91q-90 -101 -147 -208q-89 -164 -119 -364q100 -16 100 -45q-141 -142 -141 -221q72 0 215 147q18 0 37 -53t22 -111q106 -55 106 -100q0 -37 -100 -96q-8 -160 -55 -160l-68 65q-69 68 -153 76
q0 -71 73.5 -143t73.5 -84q0 -23 -108 -45q32 -163 130.5 -336.5t217.5 -276.5q20 -17 20 -34zM680 418q0 53 -38 91t-91 38q-54 0 -91.5 -38t-37.5 -91q0 -52 37.5 -88.5t91.5 -36.5q53 0 91 36.5t38 88.5z" />
    <glyph glyph-name="uniFD3F" unicode="&#xfd3f;" horiz-adv-x="1135" 
d="M1079 453q0 -48 -104 -109q-11 -156 -49 -156q-153 144 -228 144q8 -77 79 -145.5t71 -77.5q0 -16 -61 -36q-69 -21 -154 -24q-72 -217 -195 -388q-95 -133 -204 -219q-87 -69 -123 -69q-21 0 -21 21q0 10 73 92q90 102 148 208q88 164 119 365q-100 17 -100 45
q141 143 141 222q-73 0 -215 -148q-19 0 -37.5 52.5t-21.5 111.5q-107 56 -107 100q0 38 100 97q10 159 56 159l68 -65q69 -68 153 -76q0 72 -74 144t-74 83q0 23 109 45q-32 164 -130.5 337t-217.5 276q-21 18 -21 33q0 16 25 16q76 0 229 -150q201 -197 314 -499
q209 -3 209 -56q-138 -144 -138 -223q62 0 134 74t81 74q38 0 56 -164q110 -54 110 -94zM713 446q0 52 -38 88.5t-91 36.5t-91 -36.5t-38 -88.5q0 -53 38 -91t91 -38t91 38t38 91z" />
    </font>
</defs>
</svg>
